<svg width="121" height="42" viewBox="0 0 121 42" fill="none" xmlns="http://www.w3.org/2000/svg">
<g clip-path="url(#clip0_7343_1166)">
<path d="M18.7231 19.9888H23.8836V27.237C22.2734 27.7543 20.2404 28.0381 18.1269 28.0381C9.56182 28.0381 4.52778 20.7034 4.52778 13.5401C4.52778 6.51452 9.08116 1.58647 15.4337 1.58647C19.4535 1.58647 21.7925 2.94828 23.8851 4.84523V7.21002L27.8087 3.28634C25.327 1.60728 21.7334 0.0115356 16.5968 0.0115356C5.32086 0.0115356 0.166748 8.07856 0.166748 14.7081C0.166748 24.1447 7.04001 29.8293 15.6774 29.8293C19.8654 29.8293 23.584 29.19 27.8794 27.9948V20.5063C27.8794 20.1234 28.0476 19.8607 28.2992 19.6299L29.6546 18.2745H20.4502L18.7231 19.9888Z" fill="url(#paint0_linear_7343_1166)"/>
<path d="M41.8406 10.1387C35.3503 10.1387 31.3289 14.8813 31.3289 19.9153C31.3289 24.2603 34.5686 29.4191 41.1324 29.4191C47.4466 29.4191 51.3205 24.6673 51.3205 19.5452C51.3205 14.774 47.5347 10.1405 41.8406 10.1405V10.1387ZM40.7637 11.5214C45.3397 11.5214 47.3775 17.483 47.3775 21.7352C47.3775 28.0589 42.6335 28.1839 42.0664 28.1839C39.8954 28.1839 38.3781 26.8718 37.2424 25.1509C36.2426 23.565 35.2653 20.6185 35.2653 17.7394C35.2653 14.8715 36.204 13.4712 37.6814 12.4411C38.8894 11.6688 40.0205 11.5214 40.7622 11.5214H40.7637Z" fill="url(#paint1_linear_7343_1166)"/>
<path d="M84.2675 10.1371C78.5989 10.1371 75.5324 13.726 75.5324 17.733C75.5324 20.7835 77.7177 24.2249 82.2262 24.2249H83.3668C83.3668 24.2249 83.0562 24.9796 83.0546 25.7085C83.0546 26.7838 83.4407 27.3876 84.2608 28.3168C76.5032 28.7895 73.3854 31.9185 73.3854 35.2814C73.3854 38.2264 76.2053 41.1247 82.1315 41.1247C89.1474 41.1247 92.7811 37.2296 92.7811 33.407C92.7811 30.7122 91.4385 29.235 88.0387 26.6876C87.039 25.9106 86.8451 25.4157 86.8451 24.8341C86.8451 24.001 87.3433 23.4496 87.526 23.2415C87.848 22.9019 88.4056 22.5141 88.6139 22.3283C89.7562 21.3606 91.3696 19.9284 91.3696 17.07C91.3696 15.109 90.5539 13.4219 88.6956 11.8422H90.9642L92.6689 10.1375H84.2675V10.1371ZM82.7039 11.4125C83.7324 11.4125 84.591 11.7762 85.4979 12.5308C86.5039 13.4376 88.1111 15.8745 88.1111 18.8898C88.1111 22.1437 85.5829 23.0345 84.2146 23.0345C83.5449 23.0345 82.7425 22.8471 82.063 22.3825C80.5538 21.4037 79.0556 18.7984 79.0556 15.6982C79.0556 12.9009 80.7218 11.4125 82.7039 11.4125ZM84.9484 29.5521C85.3809 29.5521 85.6919 29.5875 85.6919 29.5875C85.6919 29.5875 86.7124 30.3165 87.4254 30.8611C89.0852 32.1732 90.1201 33.1762 90.1201 34.9628C90.1201 37.4189 87.8418 39.3446 84.152 39.3446C80.1019 39.3446 77.0064 37.4589 77.0064 34.3797C77.0064 31.8289 79.1276 29.6337 84.9484 29.5521Z" fill="url(#paint2_linear_7343_1166)"/>
<path d="M93.8963 28.8568H101.678L102.863 27.6714L100.632 27.3926C100.031 27.3189 99.6736 26.7998 99.6736 26.2967V2.79145C99.6736 2.32843 99.8883 2.0913 100.045 1.94054L101.449 0.537048H94.8127L93.0856 2.26418H95.665V26.6122C95.665 26.9582 95.5561 27.1937 95.3222 27.4357L93.8963 28.8568Z" fill="url(#paint3_linear_7343_1166)"/>
<path d="M112.222 10.1387C107.877 10.1387 103.261 13.4504 103.261 19.396C103.261 24.3065 106.573 29.4191 112.76 29.4191C114.303 29.4191 115.573 29.2206 116.764 28.6743C118.041 28.0863 119.27 27.1314 120.167 25.9314C118.473 26.7853 117.092 27.3461 115.258 27.3461C111.771 27.3461 108.41 24.8307 107.234 20.2069L119.55 15.2289C118.838 12.6927 116.833 10.1387 112.223 10.1387H112.222ZM111.417 11.499C113.749 11.499 115.434 13.4168 115.434 14.918C115.434 15.4034 115.13 15.6598 114.527 15.8969L106.957 18.9586C106.957 18.9586 106.752 18.0054 106.752 16.9752C106.752 12.6541 109.876 11.499 111.417 11.499Z" fill="url(#paint4_linear_7343_1166)"/>
<path d="M63.8638 10.1387C57.3734 10.1387 53.3521 14.8813 53.3521 19.9153C53.3521 24.2603 56.5918 29.4191 63.1556 29.4191C69.4697 29.4191 73.3437 24.6673 73.3437 19.5452C73.3437 14.774 69.5578 10.1405 63.8638 10.1405V10.1387ZM62.787 11.5214C67.3629 11.5214 69.4007 17.483 69.4007 21.7352C69.4007 28.0589 64.6567 28.1839 64.0896 28.1839C61.9186 28.1839 60.4014 26.8718 59.2656 25.1509C58.2659 23.565 57.2885 20.6185 57.2885 17.7394C57.2885 14.8715 58.2272 13.4712 59.7046 12.4411C60.9126 11.6688 62.0437 11.5214 62.7854 11.5214H62.787Z" fill="url(#paint5_linear_7343_1166)"/>
</g>
<defs>
<linearGradient id="paint0_linear_7343_1166" x1="14.8374" y1="-0.0728703" x2="14.8374" y2="29.8277" gradientUnits="userSpaceOnUse">
<stop stop-color="#196EEF"/>
<stop offset="0.5" stop-color="#186DEE"/>
<stop offset="1" stop-color="#1065E7"/>
</linearGradient>
<linearGradient id="paint1_linear_7343_1166" x1="41.252" y1="10.0931" x2="41.252" y2="29.4273" gradientUnits="userSpaceOnUse">
<stop stop-color="#DE5744"/>
<stop offset="0.5" stop-color="#DB4632"/>
<stop offset="1" stop-color="#D13D29"/>
</linearGradient>
<linearGradient id="paint2_linear_7343_1166" x1="83.012" y1="10.0931" x2="83.012" y2="41.1364" gradientUnits="userSpaceOnUse">
<stop stop-color="#1A6FEF"/>
<stop offset="0.25" stop-color="#1E72EF"/>
<stop offset="0.5" stop-color="#166BEC"/>
<stop offset="0.75" stop-color="#1267E9"/>
<stop offset="1" stop-color="#1063E5" stop-opacity="0.87"/>
</linearGradient>
<linearGradient id="paint3_linear_7343_1166" x1="97.9035" y1="0.470388" x2="97.9035" y2="28.884" gradientUnits="userSpaceOnUse">
<stop stop-color="#0AA561"/>
<stop offset="0.5" stop-color="#009B58"/>
<stop offset="1" stop-color="#00914B"/>
</linearGradient>
<linearGradient id="paint4_linear_7343_1166" x1="111.643" y1="10.0931" x2="111.643" y2="29.374" gradientUnits="userSpaceOnUse">
<stop stop-color="#DE5644"/>
<stop offset="0.5" stop-color="#DA4531"/>
<stop offset="1" stop-color="#CE3A28"/>
</linearGradient>
<linearGradient id="paint5_linear_7343_1166" x1="63.2758" y1="10.1351" x2="63.2758" y2="29.3889" gradientUnits="userSpaceOnUse">
<stop stop-color="#FFC01A"/>
<stop offset="0.5" stop-color="#FFBA03"/>
<stop offset="1" stop-color="#FFB300"/>
</linearGradient>
<clipPath id="clip0_7343_1166">
<rect width="120" height="41.136" fill="white" transform="translate(0.166748)"/>
</clipPath>
</defs>
</svg>
