<svg width="121" height="27" viewBox="0 0 121 27" fill="none" xmlns="http://www.w3.org/2000/svg">
<g clip-path="url(#clip0_7343_1158)">
<path d="M42.699 15.5153L41.9837 17.542H41.9241C41.8048 17.085 41.5863 16.3895 41.2286 15.555L37.3938 5.91817H33.6384V21.2775H36.1221V11.7996C36.1221 11.2035 36.1221 10.528 36.1022 9.69342C36.0823 9.27616 36.0426 8.95824 36.0227 8.7198H36.0823C36.2016 9.3159 36.3407 9.75303 36.44 10.0312L41.0498 21.2378H42.7983L47.3684 9.93186C47.4677 9.67355 47.5671 9.15694 47.6664 8.7198H47.726C47.6664 9.85238 47.6267 10.8657 47.6068 11.4817V21.2179H50.2495V5.87843H46.6332L42.699 15.5153ZM52.7531 10.21H55.3362V21.2179H52.7531V10.21ZM54.0645 5.56051C53.6274 5.56051 53.2697 5.71947 52.9716 5.99764C52.6736 6.27582 52.5146 6.63348 52.5146 7.07061C52.5146 7.48788 52.6736 7.84553 52.9716 8.12371C53.2697 8.40189 53.6274 8.54098 54.0645 8.54098C54.5016 8.54098 54.8791 8.38202 55.1573 8.12371C55.4554 7.84553 55.6143 7.48788 55.6143 7.07061C55.6143 6.65335 55.4554 6.29569 55.1573 5.99764C54.899 5.71947 54.5215 5.56051 54.0645 5.56051ZM64.4961 10.1107C64.0192 10.0113 63.5225 9.95173 63.0456 9.95173C61.8733 9.95173 60.8003 10.21 59.9062 10.7266C59.0121 11.2433 58.2967 11.9586 57.8397 12.8527C57.3629 13.7667 57.1244 14.8198 57.1244 16.0319C57.1244 17.085 57.3629 18.0189 57.8199 18.8733C58.2769 19.7078 58.9127 20.3834 59.7671 20.8404C60.5818 21.2974 61.5355 21.5358 62.6085 21.5358C63.8404 21.5358 64.8935 21.2775 65.728 20.8006L65.7479 20.7808V18.3964L65.6486 18.4759C65.271 18.754 64.8339 18.9925 64.3968 19.1316C63.9398 19.2905 63.5225 19.37 63.1648 19.37C62.1316 19.37 61.317 19.072 60.7407 18.4163C60.1446 17.7804 59.8466 16.9061 59.8466 15.8133C59.8466 14.6807 60.1446 13.7866 60.7606 13.1309C61.3766 12.4752 62.1912 12.1374 63.1847 12.1374C64.0192 12.1374 64.8736 12.4156 65.6486 12.9719L65.7479 13.0514V10.528L65.728 10.5081C65.3903 10.369 65.0127 10.21 64.4961 10.1107ZM73.0202 10.0312C72.3844 10.0312 71.7883 10.2299 71.2717 10.6472C70.8346 11.0048 70.5365 11.5214 70.2782 12.1374H70.2583V10.21H67.6753V21.2179H70.2583V15.5947C70.2583 14.641 70.457 13.8462 70.8942 13.27C71.3313 12.6739 71.8877 12.3758 72.5632 12.3758C72.8017 12.3758 73.0401 12.4354 73.3382 12.4752C73.6163 12.5547 73.815 12.6341 73.9541 12.7335L74.0535 12.813V10.2299L73.9939 10.21C73.815 10.0908 73.4574 10.0312 73.0202 10.0312ZM80.0541 9.9716C78.246 9.9716 76.7955 10.5081 75.7821 11.5612C74.7489 12.6143 74.2522 14.0648 74.2522 15.8928C74.2522 17.6016 74.7688 18.9925 75.7623 20.0058C76.7558 20.9993 78.1069 21.5159 79.7958 21.5159C81.5642 21.5159 82.975 20.9795 83.9884 19.9065C85.0216 18.8335 85.5183 17.4029 85.5183 15.6345C85.5183 13.8859 85.0415 12.4951 84.0678 11.4817C83.134 10.4683 81.7629 9.9716 80.0541 9.9716ZM82.1206 18.4361C81.6437 19.0521 80.8887 19.3501 79.9548 19.3501C79.0209 19.3501 78.2659 19.0521 77.7294 18.3964C77.1929 17.7804 76.9346 16.8863 76.9346 15.7537C76.9346 14.5814 77.2128 13.6872 77.7294 13.0514C78.2659 12.4156 79.001 12.0977 79.9349 12.0977C80.8489 12.0977 81.5642 12.3957 82.0809 13.0117C82.5975 13.6276 82.8757 14.5218 82.8757 15.6941C82.8359 16.8863 82.6173 17.8202 82.1206 18.4361ZM91.2806 14.7801C90.4659 14.4423 89.9493 14.184 89.7108 13.9654C89.5122 13.7667 89.4128 13.4885 89.4128 13.1309C89.4128 12.8328 89.532 12.5348 89.8301 12.3361C90.1281 12.1374 90.4659 12.0381 90.9627 12.0381C91.3998 12.0381 91.8568 12.1175 92.2939 12.2368C92.7311 12.356 93.1285 12.5348 93.4464 12.7732L93.5457 12.8527V10.4286L93.4861 10.4087C93.1881 10.2895 92.7907 10.1703 92.3138 10.0709C91.8369 9.99147 91.3998 9.95173 91.0421 9.95173C89.8102 9.95173 88.7968 10.2498 88.0021 10.9055C87.2073 11.5214 86.8297 12.356 86.8297 13.3296C86.8297 13.8462 86.9092 14.3032 87.088 14.6807C87.2669 15.0583 87.5252 15.4159 87.8828 15.714C88.2405 15.9921 88.7571 16.3101 89.4724 16.6081C90.0685 16.8664 90.5255 17.0651 90.8037 17.2241C91.0819 17.383 91.2607 17.5619 91.3998 17.7009C91.4991 17.8599 91.5587 18.0586 91.5587 18.3169C91.5587 19.0521 91.0024 19.4097 89.8698 19.4097C89.4327 19.4097 88.9757 19.3303 88.4392 19.1514C87.9027 18.9726 87.406 18.7143 86.9887 18.4163L86.8893 18.3368V20.8602L86.949 20.8801C87.3265 21.0589 87.7835 21.1781 88.3398 21.3172C88.8962 21.4166 89.3929 21.4961 89.8301 21.4961C91.1613 21.4961 92.2542 21.198 93.0291 20.5423C93.8239 19.9065 94.2412 19.0918 94.2412 18.0387C94.2412 17.3035 94.0425 16.6478 93.6053 16.1511C93.0291 15.6742 92.3138 15.1775 91.2806 14.7801ZM101.056 9.9716C99.2483 9.9716 97.7978 10.5081 96.7845 11.5612C95.7711 12.6143 95.2545 14.0648 95.2545 15.8928C95.2545 17.6016 95.7711 18.9925 96.7646 20.0058C97.7581 20.9993 99.1093 21.5159 100.798 21.5159C102.567 21.5159 103.977 20.9795 104.991 19.9065C106.024 18.8335 106.521 17.4029 106.521 15.6345C106.521 13.8859 106.044 12.4951 105.07 11.4817C104.136 10.4683 102.765 9.9716 101.056 9.9716ZM103.103 18.4361C102.626 19.0521 101.871 19.3501 100.937 19.3501C99.9835 19.3501 99.2483 19.0521 98.7119 18.3964C98.1754 17.7804 97.9171 16.8863 97.9171 15.7537C97.9171 14.5814 98.1952 13.6872 98.7119 13.0514C99.2483 12.4156 99.9835 12.0977 100.917 12.0977C101.812 12.0977 102.547 12.3957 103.063 13.0117C103.58 13.6276 103.858 14.5218 103.858 15.6941C103.858 16.8863 103.6 17.8202 103.103 18.4361ZM120.33 12.3361V10.21H117.727V6.95139L117.648 6.97126L115.184 7.70644L115.124 7.72631V10.21H111.23V8.81915C111.23 8.18332 111.389 7.68657 111.667 7.36866C111.945 7.05074 112.362 6.89178 112.879 6.89178C113.237 6.89178 113.614 6.97126 114.031 7.15009L114.131 7.2097V4.96442L114.071 4.94455C113.714 4.82533 113.237 4.74585 112.621 4.74585C111.846 4.74585 111.17 4.92468 110.554 5.22272C109.938 5.56051 109.481 6.01751 109.143 6.63348C108.806 7.22957 108.627 7.90514 108.627 8.68006V10.21H106.819V12.3162H108.627V21.2179H111.23V12.3361H115.124V17.999C115.124 20.3237 116.217 21.4961 118.403 21.4961C118.76 21.4961 119.138 21.4365 119.496 21.3768C119.873 21.2974 120.151 21.198 120.31 21.1185L120.33 21.0987V18.9726L120.231 19.0521C120.072 19.1514 119.933 19.2309 119.694 19.2905C119.496 19.3501 119.317 19.37 119.178 19.37C118.661 19.37 118.303 19.2508 118.045 18.9527C117.807 18.6746 117.687 18.2176 117.687 17.542V12.3361H120.33Z" fill="#737373"/>
<path d="M0.336609 0.752014H12.5168V12.9322H0.336609V0.752014Z" fill="#F25022"/>
<path d="M13.7885 0.752014H25.9686V12.9322H13.7885V0.752014Z" fill="#7FBA00"/>
<path d="M0.336609 14.2039H12.5168V26.384H0.336609V14.2039Z" fill="#00A4EF"/>
<path d="M13.7885 14.2039H25.9686V26.384H13.7885V14.2039Z" fill="#FFB900"/>
</g>
<defs>
<clipPath id="clip0_7343_1158">
<rect width="120" height="25.632" fill="white" transform="translate(0.333374 0.752014)"/>
</clipPath>
</defs>
</svg>
