<svg width="121" height="29" viewBox="0 0 121 29" fill="none" xmlns="http://www.w3.org/2000/svg">
<path fill-rule="evenodd" clip-rule="evenodd" d="M96.6247 9.42066C97.0621 10.1754 97.2052 11.0342 97.2525 11.9996L97.3146 13.2864V22.2843L97.3781 23.5725C97.505 25.6761 99.0564 27.2316 101.176 27.3639L102.458 27.4274V13.2864L102.521 11.9996C102.574 11.045 102.716 10.17 103.16 9.40986C103.612 8.63015 104.262 7.98324 105.044 7.5341C105.826 7.08495 106.712 6.84937 107.613 6.85102C108.515 6.85266 109.4 7.09146 110.18 7.54345C110.961 7.99544 111.608 8.64471 112.058 9.42606C112.495 10.1808 112.632 11.0558 112.684 11.9996L112.748 13.2823V22.2843L112.811 23.5725C112.944 25.6869 114.483 27.2424 116.609 27.3639L117.891 27.4274V11.9996C117.891 9.27156 116.807 6.65518 114.879 4.72578C112.95 2.79637 110.334 1.71191 107.606 1.71083C106.146 1.70929 104.702 2.01937 103.372 2.62034C102.041 3.22132 100.854 4.09935 99.8895 5.19578C98.9248 4.09978 97.7376 3.22196 96.407 2.62081C95.0764 2.01966 93.633 1.70898 92.1729 1.70948C90.0369 1.70948 88.0547 2.3576 86.4128 3.47694C85.411 2.35895 83.1696 1.70948 81.8828 1.70948V27.4274L83.1696 27.3639C85.3219 27.2221 86.8773 25.7085 86.961 23.5725L87.0299 22.2843V13.2864L87.0934 11.9996C87.1474 11.0288 87.2824 10.1754 87.7212 9.41526C88.1743 8.63603 88.8238 7.98928 89.6049 7.53959C90.3861 7.08989 91.2716 6.85298 92.1729 6.85252C93.075 6.85272 93.9611 7.09009 94.7425 7.54085C95.5238 7.9916 96.1729 8.63988 96.6247 9.42066ZM8.58542 27.3653L9.87219 27.4274H29.1603L29.0968 26.1446C28.9226 24.0302 27.4252 22.4855 25.304 22.3478L24.0172 22.2843H12.4457L27.8735 6.85117L27.81 5.5698C27.7101 3.43373 26.1492 1.89041 24.0172 1.77294L22.7305 1.71488L3.44238 1.70948L3.50584 2.99626C3.67462 5.09047 5.19363 6.66754 7.2973 6.78906L8.58542 6.85252H20.1569L4.72915 22.2857L4.79262 23.5725C4.91954 25.6923 6.44935 27.2275 8.58542 27.3639V27.3653ZM76.8343 5.47393C78.0286 6.66797 78.976 8.08558 79.6223 9.64579C80.2687 11.206 80.6014 12.8783 80.6014 14.5671C80.6014 16.2559 80.2687 17.9281 79.6223 19.4884C78.976 21.0486 78.0286 22.4662 76.8343 23.6602C74.4214 26.0711 71.15 27.4254 67.7391 27.4254C64.3282 27.4254 61.0568 26.0711 58.644 23.6602C53.6224 18.6387 53.6224 10.4954 58.644 5.47393C59.8371 4.28029 61.2538 3.33337 62.8129 2.68723C64.3721 2.0411 66.0433 1.7084 67.731 1.70813C69.4215 1.70696 71.0956 2.03907 72.6577 2.68548C74.2197 3.33188 75.639 4.27989 76.8343 5.47528V5.47393ZM73.1954 9.11551C74.6418 10.563 75.4543 12.5255 75.4543 14.5718C75.4543 16.6181 74.6418 18.5806 73.1954 20.0281C71.7479 21.4745 69.7854 22.287 67.7391 22.287C65.6929 22.287 63.7303 21.4745 62.2828 20.0281C60.8364 18.5806 60.024 16.6181 60.024 14.5718C60.024 12.5255 60.8364 10.563 62.2828 9.11551C63.7303 7.66913 65.6929 6.85665 67.7391 6.85665C69.7854 6.85665 71.7479 7.66913 73.1954 9.11551ZM40.7426 1.70813C42.4304 1.70857 44.1016 2.04149 45.6608 2.68786C47.22 3.33423 48.6365 4.2814 49.8296 5.47528C54.8525 10.4954 54.8525 18.6401 49.8296 23.6602C47.4168 26.0711 44.1454 27.4254 40.7345 27.4254C37.3235 27.4254 34.0522 26.0711 31.6393 23.6602C26.6178 18.6387 26.6178 10.4954 31.6393 5.47393C32.8325 4.28029 34.2491 3.33337 35.8083 2.68723C37.3674 2.0411 39.0386 1.7084 40.7264 1.70813H40.7426ZM46.1908 9.11281C47.6376 10.5603 48.4503 12.5232 48.4503 14.5698C48.4503 16.6164 47.6376 18.5792 46.1908 20.0267C44.7433 21.4731 42.7807 22.2856 40.7345 22.2856C38.6882 22.2856 36.7257 21.4731 35.2782 20.0267C33.8318 18.5793 33.0193 16.6167 33.0193 14.5705C33.0193 12.5242 33.8318 10.5616 35.2782 9.11416C36.7257 7.66778 38.6882 6.8553 40.7345 6.8553C42.7807 6.8553 44.7433 7.66643 46.1908 9.11281Z" fill="#2D8CFF"/>
</svg>
