<svg width="121" height="23" viewBox="0 0 121 23" fill="none" xmlns="http://www.w3.org/2000/svg">
<g clip-path="url(#clip0_7343_1153)">
<path d="M73.8136 4.48648V19.4484H78.0359V4.48648H73.8136ZM40.593 4.46112V19.4358H44.8533V7.80854L48.1754 7.82122C49.2658 7.82122 50.0266 8.08749 50.5465 8.6454C51.2185 9.35546 51.4848 10.5093 51.4848 12.6014V19.4358H55.6183V11.1686C55.6183 5.25994 51.8525 4.46112 48.1754 4.46112H40.593ZM80.6225 4.48648V19.4484H87.4695C91.1213 19.4484 92.3132 18.8398 93.5938 17.4831C94.5067 16.5321 95.09 14.4273 95.09 12.1323C95.09 10.0275 94.5955 8.15089 93.7206 6.98437C92.1737 4.89223 89.9167 4.48648 86.5439 4.48648H80.6225ZM84.8068 7.73246H86.62C89.2574 7.73246 90.9564 8.91167 90.9564 11.9801C90.9564 15.0486 89.2574 16.2405 86.62 16.2405H84.8068V7.73246ZM67.7274 4.48648L64.2024 16.3419L60.8296 4.48648H56.265L61.0832 19.4484H67.1695L72.0384 4.48648H67.7274ZM97.068 19.4484H101.29V4.48648H97.068V19.4484ZM108.911 4.48648L103.015 19.4358H107.174L108.112 16.7857H115.086L115.973 19.4231H120.5L114.553 4.48648H108.911ZM111.65 7.2126L114.211 14.2118H109.012L111.65 7.2126Z" fill="black"/>
<path d="M13.3445 6.97163V4.91754C13.5473 4.90486 13.7502 4.89218 13.9531 4.89218C19.5828 4.71466 23.2726 9.73579 23.2726 9.73579C23.2726 9.73579 19.2912 15.2641 15.0182 15.2641C14.4476 15.2641 13.8897 15.1754 13.3571 14.9978V8.75946C15.5507 9.02573 15.9945 9.98939 17.3005 12.183L20.2295 9.72311C20.2295 9.72311 18.0866 6.92092 14.4856 6.92092C14.1052 6.90824 13.7249 6.9336 13.3445 6.97163ZM13.3445 0.175354V3.24382L13.9531 3.20579C21.7764 2.93951 26.8863 9.62168 26.8863 9.62168C26.8863 9.62168 21.0283 16.7476 14.9294 16.7476C14.3969 16.7476 13.877 16.6969 13.3571 16.6082V18.5101C13.7882 18.5608 14.232 18.5989 14.6631 18.5989C20.3436 18.5989 24.4518 15.6952 28.4332 12.2717C29.0926 12.8043 31.7933 14.0849 32.3512 14.6428C28.5727 17.8127 19.7604 20.3613 14.7646 20.3613C14.2828 20.3613 13.8263 20.336 13.3698 20.2852V22.9606H34.9506V0.175354L13.3445 0.175354ZM13.3445 14.9978V16.6208C8.0951 15.6825 6.63694 10.2176 6.63694 10.2176C6.63694 10.2176 9.16019 7.4281 13.3445 6.97163V8.74678H13.3318C11.1382 8.48051 9.41378 10.5346 9.41378 10.5346C9.41378 10.5346 10.3901 13.9962 13.3445 14.9978ZM4.02494 9.98939C4.02494 9.98939 7.13145 5.39936 13.3571 4.91754V3.24382C6.45942 3.80173 0.5 9.63436 0.5 9.63436C0.5 9.63436 3.87278 19.3977 13.3445 20.2852V18.5101C6.39603 17.6479 4.02494 9.98939 4.02494 9.98939Z" fill="#76B900"/>
</g>
<defs>
<clipPath id="clip0_7343_1153">
<rect width="120" height="22.8" fill="white" transform="translate(0.5 0.16803)"/>
</clipPath>
</defs>
</svg>
