<svg width="120" height="31" viewBox="0 0 120 31" fill="none" xmlns="http://www.w3.org/2000/svg">
<g clip-path="url(#clip0_7343_1136)">
<path fill-rule="evenodd" clip-rule="evenodd" d="M38.3904 24.2944L39.888 20.8144C41.5056 22.024 43.6608 22.6528 45.7872 22.6528C47.3568 22.6528 48.3504 22.048 48.3504 21.1312C48.3264 18.568 38.9472 20.5744 38.8752 14.1472C38.8512 10.8832 41.7504 8.36804 45.8592 8.36804C48.3024 8.36804 50.7408 8.97284 52.4832 10.3504L51.0816 13.9024C49.488 12.8848 47.5056 12.16 45.6192 12.16C44.3376 12.16 43.4928 12.7648 43.4928 13.5376C43.5168 16.0528 52.968 14.6752 53.064 20.8144C53.064 24.1504 50.2368 26.4976 46.176 26.4976C43.2 26.4928 40.4688 25.792 38.3904 24.2944ZM95.8992 19.5568C95.1504 20.8624 93.7488 21.7552 92.1264 21.7552C89.7312 21.7552 87.8016 19.8208 87.8016 17.4304C87.8016 15.04 89.736 13.1056 92.1264 13.1056C93.744 13.1056 95.1504 13.9984 95.8992 15.304L100.032 13.0096C98.4864 10.2544 95.5104 8.36804 92.1264 8.36804C87.12 8.36804 83.0592 12.4288 83.0592 17.4352C83.0592 22.4416 87.12 26.5024 92.1264 26.5024C95.5344 26.5024 98.4864 24.64 100.032 21.8608L95.8992 19.5568ZM55.1424 0.846436H60.3168V26.1568H55.1424V0.846436ZM102.062 0.846436V26.1568H107.237V18.5632L113.376 26.1568H120L112.19 17.1376L119.419 8.72324H113.083L107.232 15.7072V0.846436H102.062Z" fill="black"/>
<path d="M75.6912 19.6048C74.9424 20.8384 73.3968 21.7552 71.6544 21.7552C69.2592 21.7552 67.3296 19.8208 67.3296 17.4304C67.3296 15.04 69.264 13.1056 71.6544 13.1056C73.3968 13.1056 74.9424 14.0704 75.6912 15.328V19.6048ZM75.6912 8.72802V10.7824C74.8464 9.35682 72.744 8.36322 70.5408 8.36322C65.9952 8.36322 62.4192 12.376 62.4192 17.4064C62.4192 22.4368 65.9952 26.4976 70.5408 26.4976C72.7392 26.4976 74.8416 25.5088 75.6912 24.0784V26.1328H80.8656V8.72802H75.6912Z" fill="black"/>
<path fill-rule="evenodd" clip-rule="evenodd" d="M6.408 19.5808C6.408 21.3472 4.9824 22.7728 3.216 22.7728C1.4496 22.7728 0.0240021 21.3424 0.0240021 19.5808C0.0240021 17.8192 1.4496 16.3888 3.216 16.3888H6.408V19.5808ZM8.0016 19.5808C8.0016 17.8144 9.4272 16.3888 11.1936 16.3888C12.96 16.3888 14.3856 17.8144 14.3856 19.5808V27.5584C14.3856 29.3248 12.96 30.7504 11.1936 30.7504C9.4272 30.7504 8.0016 29.3248 8.0016 27.5584V19.5808Z" fill="#E01E5A"/>
<path fill-rule="evenodd" clip-rule="evenodd" d="M11.1936 6.76962C9.4272 6.76962 8.0016 5.34402 8.0016 3.57762C8.0016 1.81122 9.4272 0.38562 11.1936 0.38562C12.96 0.38562 14.3856 1.81122 14.3856 3.57762V6.76962H11.1936ZM11.1936 8.38722C12.96 8.38722 14.3856 9.81282 14.3856 11.5792C14.3856 13.3456 12.96 14.7712 11.1936 14.7712H3.192C1.4256 14.7712 0 13.3408 0 11.5792C0 9.81762 1.4256 8.38722 3.192 8.38722H11.1936Z" fill="#36C5F0"/>
<path fill-rule="evenodd" clip-rule="evenodd" d="M23.9808 11.5792C23.9808 9.81282 25.4064 8.38722 27.1728 8.38722C28.9392 8.38722 30.3648 9.81282 30.3648 11.5792C30.3648 13.3456 28.9392 14.7712 27.1728 14.7712H23.9808V11.5792ZM22.3872 11.5792C22.3872 13.3456 20.9616 14.7712 19.1952 14.7712C17.4288 14.7712 16.0032 13.3456 16.0032 11.5792V3.57762C16.0032 1.81122 17.4288 0.38562 19.1952 0.38562C20.9616 0.38562 22.3872 1.81122 22.3872 3.57762V11.5792Z" fill="#2EB67D"/>
<path fill-rule="evenodd" clip-rule="evenodd" d="M19.1952 24.3664C20.9616 24.3664 22.3872 25.792 22.3872 27.5584C22.3872 29.3248 20.9616 30.7504 19.1952 30.7504C17.4288 30.7504 16.0032 29.3248 16.0032 27.5584V24.3664H19.1952ZM19.1952 22.7728C17.4288 22.7728 16.0032 21.3472 16.0032 19.5808C16.0032 17.8144 17.4288 16.3888 19.1952 16.3888H27.1968C28.9632 16.3888 30.3888 17.8144 30.3888 19.5808C30.3888 21.3472 28.9632 22.7728 27.1968 22.7728H19.1952Z" fill="#ECB22E"/>
</g>
<defs>
<clipPath id="clip0_7343_1136">
<rect width="120" height="30.3648" fill="white" transform="translate(0 0.38562)"/>
</clipPath>
</defs>
</svg>
