<svg width="120" height="33" viewBox="0 0 120 33" fill="none" xmlns="http://www.w3.org/2000/svg">
<g clip-path="url(#clip0_7343_1176)">
<path d="M113.581 15.7896L120 32.7842C118.108 32.514 116.217 32.1756 114.292 31.8707L110.676 22.4805L106.96 31.0956C105.136 30.7907 103.345 30.6891 101.521 30.4524L108.041 15.5876L102.128 0.351807H107.601L110.911 8.86426L114.459 0.351807H119.999L113.581 15.7896ZM97.8055 0.351807H92.839V29.8113C94.4607 29.9129 96.1492 29.9799 97.8055 30.1821V0.351807ZM88.5482 29.473C84.0218 29.1691 79.4941 28.9 74.866 28.7973V0.351937H79.9331V24.0004C82.839 24.0675 85.7438 24.3032 88.5482 24.4383V29.473ZM69.4595 11.8729V16.9399H62.5342V28.4599H57.5353V0.351807H71.7244V5.41882H62.5352V11.873H69.4605L69.4595 11.8729ZM49.0206 5.41882V28.7302C47.3309 28.7302 45.6088 28.7302 43.9525 28.7973V5.41882H38.7159V0.351807H54.2897V5.41882H49.0206ZM33.2435 17.2091C31.0142 17.2091 28.3785 17.2091 26.4866 17.3118V24.8448C29.4596 24.6415 32.4325 24.4058 35.4389 24.3043V29.1691L21.4196 30.2848V0.351807H35.438V5.41882H26.4865V12.2437C28.4465 12.2437 31.453 12.1421 33.2432 12.1421V17.2102L33.2435 17.2091ZM5.16764 14.3712V32.0739C3.34494 32.2772 1.7222 32.5139 0 32.7842V0.351807H4.83142L11.4186 18.7649V0.351807H16.4866V30.6891C14.6963 30.994 12.8715 31.0956 10.9461 31.3648L5.16764 14.3712Z" fill="#E50914"/>
</g>
<defs>
<clipPath id="clip0_7343_1176">
<rect width="120" height="32.496" fill="white" transform="translate(0 0.320007)"/>
</clipPath>
</defs>
</svg>
