<svg width="121" height="31" viewBox="0 0 121 31" fill="none" xmlns="http://www.w3.org/2000/svg">
<g clip-path="url(#clip0_7343_1145)">
<path d="M118.827 26.2385C118.303 26.2435 117.803 26.4558 117.435 26.829C117.067 27.2021 116.862 27.7057 116.865 28.2297C116.867 28.7536 117.077 29.2553 117.448 29.6249C117.82 29.9945 118.322 30.202 118.846 30.202C119.37 30.202 119.873 29.9945 120.244 29.6249C120.616 29.2553 120.826 28.7536 120.828 28.2297C120.831 27.7057 120.626 27.2021 120.258 26.829C119.89 26.4558 119.389 26.2435 118.865 26.2385H118.827ZM118.827 29.9751C118.484 29.9808 118.146 29.8845 117.857 29.6983C117.568 29.5121 117.341 29.2445 117.204 28.9292C117.067 28.6139 117.027 28.2651 117.089 27.9269C117.15 27.5888 117.31 27.2764 117.549 27.0294C117.788 26.7823 118.095 26.6117 118.431 26.539C118.767 26.4664 119.117 26.495 119.437 26.6212C119.756 26.7474 120.031 26.9656 120.227 27.2481C120.423 27.5307 120.53 27.8649 120.536 28.2086V28.2377C120.545 28.6886 120.376 29.1247 120.064 29.4504C119.752 29.776 119.323 29.9644 118.873 29.9742H118.828M111.22 25.697H106.914V18.9532C106.914 17.3451 106.885 15.2749 104.674 15.2749C102.431 15.2749 102.088 17.027 102.088 18.8361V25.6966H97.7816V11.8285H101.916V13.7237H101.973C102.387 13.0163 102.985 12.4344 103.703 12.0399C104.422 11.6454 105.233 11.4532 106.052 11.4836C110.417 11.4836 111.222 14.3544 111.222 18.0892L111.22 25.697ZM92.9226 9.93284C92.4284 9.93293 91.9452 9.78645 91.5342 9.51193C91.1232 9.23741 90.8028 8.84718 90.6136 8.39058C90.4244 7.93398 90.3748 7.43153 90.4711 6.94675C90.5675 6.46198 90.8054 6.01665 91.1548 5.6671C91.5042 5.31755 91.9495 5.07946 92.4342 4.98295C92.9189 4.88644 93.4214 4.93583 93.8781 5.1249C94.3348 5.31396 94.7251 5.63419 94.9998 6.0451C95.2744 6.45601 95.4211 6.93914 95.4212 7.43339C95.4212 7.76157 95.3567 8.08654 95.2311 8.38975C95.1056 8.69297 94.9216 8.96849 94.6896 9.20058C94.4575 9.43268 94.1821 9.6168 93.8789 9.74244C93.5758 9.86808 93.2508 9.93278 92.9226 9.93284ZM95.0758 25.697H90.765V11.8285H95.0758V25.697ZM113.367 0.935817H88.6011C88.039 0.929474 87.4973 1.14655 87.0952 1.53936C86.693 1.93216 86.4633 2.46855 86.4565 3.03065V27.8991C86.4631 28.4615 86.6927 28.9982 87.0948 29.3914C87.4969 29.7846 88.0387 30.0021 88.6011 29.9961H113.367C113.93 30.0032 114.474 29.7863 114.877 29.3931C115.281 28.9999 115.512 28.4626 115.52 27.8991V3.02886C115.512 2.46564 115.281 1.92864 114.877 1.53585C114.473 1.14306 113.93 0.926595 113.367 0.934023M74.7357 15.1758C72.5825 15.1758 71.2907 16.6134 71.2907 18.7083C71.2907 20.8031 72.5821 22.2421 74.7357 22.2421C76.8893 22.2421 78.1839 20.8067 78.1839 18.7083C78.1839 16.6098 76.8915 15.1758 74.7357 15.1758ZM82.1484 25.689H78.1839V23.8498H78.1251C77.6277 24.5188 76.9826 25.0639 76.2401 25.4426C75.4975 25.8214 74.6775 26.0236 73.8439 26.0335C69.7063 26.0335 66.9808 23.0473 66.9808 18.8244C66.9808 14.9461 69.3927 11.3849 73.3577 11.3849C75.1399 11.3849 76.8045 11.8725 77.7811 13.224H77.8376V5.23H82.1479L82.1484 25.689ZM61.4517 17.1445C61.4599 16.7952 61.3971 16.4478 61.2672 16.1234C61.1372 15.799 60.9427 15.5043 60.6955 15.2573C60.4483 15.0103 60.1536 14.816 59.8291 14.6863C59.5046 14.5565 59.1571 14.494 58.8078 14.5024C58.0554 14.4556 57.3147 14.7064 56.7454 15.2006C56.1762 15.6949 55.8239 16.393 55.7647 17.1445H61.4517ZM65.0995 23.29C64.3839 24.1578 63.4842 24.8555 62.4657 25.3327C61.4472 25.8099 60.3353 26.0546 59.2106 26.0492C54.9043 26.0492 51.4566 23.1747 51.4566 18.7235C51.4566 14.2723 54.9038 11.3992 59.2106 11.3992C63.2356 11.3992 65.7598 14.2701 65.7598 18.7235V20.0737H55.7647C55.8891 20.8395 56.2861 21.5344 56.8825 22.0306C57.4789 22.5267 58.2345 22.7906 59.0101 22.7737C59.623 22.7699 60.2253 22.6128 60.762 22.3168C61.2988 22.0209 61.753 21.5953 62.0833 21.079L65.0995 23.29ZM22.2904 11.8249H26.4258V13.7201H26.4845C26.8976 13.0125 27.4951 12.4303 28.2132 12.0357C28.9314 11.6412 29.7432 11.4491 30.5621 11.48C34.9289 11.48 35.7327 14.3531 35.7327 18.0856V25.6907H31.4264V18.9483C31.4264 17.3388 31.3968 15.27 29.1836 15.27C26.9452 15.27 26.5998 17.0225 26.5998 18.8312V25.689H22.2935L22.2904 11.8249ZM37.9164 5.23135H42.2227V17.4617L47.1032 11.8173H52.3829L46.7309 18.2377L52.264 25.6975H46.8515L42.2801 18.8424H42.2236V25.6966H37.9173L37.9164 5.23135ZM15.5963 11.8236H19.9026V25.6916H15.5963V11.8236ZM17.7495 4.92901C18.2435 4.9291 18.7265 5.07569 19.1372 5.35024C19.548 5.62478 19.8681 6.01497 20.0571 6.47144C20.2461 6.92792 20.2955 7.43019 20.1991 7.91474C20.1026 8.3993 19.8647 8.84437 19.5153 9.1937C19.1659 9.54302 18.7208 9.78089 18.2362 9.87725C17.7516 9.9736 17.2494 9.9241 16.7929 9.73501C16.3365 9.54593 15.9464 9.22574 15.6719 8.81494C15.3974 8.40414 15.2509 7.92117 15.2509 7.42711C15.2509 7.09902 15.3155 6.77414 15.4411 6.47103C15.5667 6.16791 15.7507 5.89251 15.9828 5.66053C16.2148 5.42855 16.4902 5.24455 16.7933 5.11904C17.0965 4.99352 17.4214 4.92895 17.7495 4.92901ZM0.833344 5.23449H5.31593V21.5625H13.6145V25.6993H0.833344V5.23449ZM119.142 28.3458C119.215 28.3466 119.289 28.3322 119.356 28.3035C119.424 28.2748 119.486 28.2324 119.537 28.1791C119.588 28.1257 119.627 28.0624 119.652 27.9932C119.678 27.924 119.689 27.8502 119.684 27.7766C119.684 27.3729 119.441 27.18 118.941 27.18H118.134V29.2937H118.437V28.3723H118.811L118.819 28.3835L119.398 29.2937H119.723L119.1 28.3517L119.142 28.3458ZM118.79 28.1341H118.438V27.4195H118.885C119.115 27.4195 119.378 27.4572 119.378 27.7591C119.378 28.1063 119.112 28.1341 118.789 28.1341" fill="#0A66C2"/>
</g>
<defs>
<clipPath id="clip0_7343_1145">
<rect width="120" height="29.28" fill="white" transform="translate(0.833344 0.927979)"/>
</clipPath>
</defs>
</svg>
