<svg width="259" height="158" viewBox="0 0 259 158" fill="none" xmlns="http://www.w3.org/2000/svg">
<g filter="url(#filter0_d_7355_231)">
<rect x="39" y="24" width="181" height="80" rx="16" fill="white"/>
<circle cx="79" cy="64" r="28" fill="#E2E8F0"/>
<circle cx="79" cy="56" r="8" fill="#CBD5E1"/>
<path d="M95 81C95 78.8989 94.5861 76.8183 93.7821 74.8771C92.978 72.9359 91.7994 71.172 90.3137 69.6863C88.828 68.2006 87.0641 67.022 85.1229 66.2179C83.1817 65.4139 81.1011 65 79 65C76.8988 65 74.8183 65.4139 72.8771 66.2179C70.9359 67.022 69.172 68.2006 67.6863 69.6863C66.2006 71.172 65.022 72.9359 64.2179 74.8771C63.4139 76.8183 63 78.8989 63 81L79 81H95Z" fill="#CBD5E1"/>
<rect x="119" y="38" width="89" height="8" rx="4" fill="#CBD5E1"/>
<rect x="119" y="54" width="65" height="8" rx="4" fill="#E2E8F0"/>
<rect x="119" y="70" width="67" height="20" rx="10" fill="white"/>
<path d="M122.639 85.0909V74.1818H123.338V85.0909H122.639ZM124.493 77.7827C124.459 77.4389 124.313 77.1719 124.054 76.9815C123.795 76.7912 123.445 76.696 123.001 76.696C122.7 76.696 122.446 76.7386 122.239 76.8239C122.031 76.9062 121.872 77.0213 121.761 77.169C121.653 77.3168 121.599 77.4844 121.599 77.6719C121.594 77.8281 121.626 77.9645 121.697 78.081C121.771 78.1974 121.872 78.2983 122 78.3835C122.128 78.4659 122.276 78.5384 122.443 78.6009C122.611 78.6605 122.79 78.7116 122.98 78.7543L123.764 78.9418C124.145 79.027 124.494 79.1406 124.812 79.2827C125.131 79.4247 125.406 79.5994 125.639 79.8068C125.872 80.0142 126.053 80.2585 126.18 80.5398C126.311 80.821 126.378 81.1435 126.381 81.5071C126.378 82.0412 126.241 82.5043 125.972 82.8963C125.705 83.2855 125.318 83.5881 124.812 83.804C124.31 84.017 123.703 84.1236 122.993 84.1236C122.288 84.1236 121.675 84.0156 121.152 83.7997C120.632 83.5838 120.226 83.2642 119.933 82.8409C119.643 82.4148 119.491 81.8878 119.477 81.2599H121.263C121.283 81.5526 121.366 81.7969 121.514 81.9929C121.665 82.1861 121.865 82.3324 122.115 82.4318C122.368 82.5284 122.653 82.5767 122.972 82.5767C123.284 82.5767 123.555 82.5312 123.786 82.4403C124.018 82.3494 124.199 82.223 124.327 82.0611C124.455 81.8991 124.518 81.7131 124.518 81.5028C124.518 81.3068 124.46 81.142 124.344 81.0085C124.23 80.875 124.063 80.7614 123.841 80.6676C123.622 80.5739 123.354 80.4886 123.036 80.4119L122.085 80.1733C121.349 79.9943 120.768 79.7145 120.342 79.3338C119.916 78.9531 119.705 78.4403 119.707 77.7955C119.705 77.267 119.845 76.8054 120.129 76.4105C120.416 76.0156 120.81 75.7074 121.31 75.4858C121.81 75.2642 122.378 75.1534 123.014 75.1534C123.662 75.1534 124.227 75.2642 124.71 75.4858C125.196 75.7074 125.574 76.0156 125.844 76.4105C126.114 76.8054 126.253 77.2628 126.261 77.7827H124.493ZM127.571 84V82.6705L130.677 79.794C130.941 79.5384 131.163 79.3082 131.342 79.1037C131.524 78.8991 131.662 78.6989 131.755 78.5028C131.849 78.304 131.896 78.0895 131.896 77.8594C131.896 77.6037 131.838 77.3835 131.721 77.1989C131.605 77.0114 131.446 76.8679 131.244 76.7685C131.042 76.6662 130.814 76.6151 130.558 76.6151C130.291 76.6151 130.058 76.669 129.859 76.777C129.66 76.8849 129.507 77.0398 129.399 77.2415C129.291 77.4432 129.237 77.6832 129.237 77.9616H127.485C127.485 77.3906 127.615 76.8949 127.873 76.4744C128.132 76.054 128.494 75.7287 128.96 75.4986C129.426 75.2685 129.963 75.1534 130.571 75.1534C131.196 75.1534 131.74 75.2642 132.203 75.4858C132.669 75.7045 133.031 76.0085 133.289 76.3977C133.548 76.7869 133.677 77.233 133.677 77.7358C133.677 78.0653 133.612 78.3906 133.481 78.7116C133.353 79.0327 133.125 79.3892 132.795 79.7812C132.466 80.1705 132.001 80.6378 131.402 81.1832L130.127 82.4318V82.4915H133.792V84H127.571ZM138.317 84.1193C137.714 84.1193 137.178 84.0085 136.706 83.7869C136.237 83.5653 135.865 83.2599 135.589 82.8707C135.314 82.4815 135.17 82.0355 135.159 81.5327H136.949C136.969 81.8707 137.111 82.1449 137.375 82.3551C137.639 82.5653 137.953 82.6705 138.317 82.6705C138.607 82.6705 138.862 82.6065 139.084 82.4787C139.308 82.348 139.483 82.1676 139.608 81.9375C139.736 81.7045 139.8 81.4375 139.8 81.1364C139.8 80.8295 139.734 80.5597 139.604 80.3267C139.476 80.0937 139.298 79.9119 139.071 79.7812C138.844 79.6506 138.584 79.5838 138.291 79.581C138.036 79.581 137.787 79.6335 137.545 79.7386C137.307 79.8437 137.121 79.9872 136.987 80.169L135.347 79.875L135.76 75.2727H141.095V76.7812H137.281L137.055 78.9673H137.107C137.26 78.7514 137.491 78.5724 137.801 78.4304C138.111 78.2884 138.457 78.2173 138.841 78.2173C139.366 78.2173 139.835 78.3409 140.247 78.5881C140.659 78.8352 140.984 79.1747 141.223 79.6065C141.462 80.0355 141.58 80.5298 141.577 81.0895C141.58 81.6776 141.443 82.2003 141.168 82.6577C140.895 83.1122 140.513 83.4702 140.021 83.7315C139.533 83.9901 138.964 84.1193 138.317 84.1193ZM144.572 82.8068L144.526 83.2756C144.489 83.6506 144.418 84.0241 144.312 84.3963C144.21 84.7713 144.102 85.1108 143.989 85.4148C143.878 85.7188 143.788 85.9574 143.72 86.1307H142.544C142.587 85.9631 142.645 85.7287 142.719 85.4276C142.793 85.1293 142.862 84.794 142.928 84.4219C142.993 84.0497 143.034 83.6705 143.051 83.2841L143.072 82.8068H144.572ZM149.286 84.1918C148.553 84.1889 147.922 84.0085 147.393 83.6506C146.868 83.2926 146.463 82.7741 146.179 82.0952C145.898 81.4162 145.759 80.5994 145.761 79.6449C145.761 78.6932 145.902 77.8821 146.183 77.2116C146.467 76.5412 146.872 76.0312 147.398 75.6818C147.926 75.3295 148.555 75.1534 149.286 75.1534C150.016 75.1534 150.643 75.3295 151.169 75.6818C151.697 76.0341 152.104 76.5455 152.388 77.2159C152.672 77.8835 152.813 78.6932 152.81 79.6449C152.81 80.6023 152.668 81.4205 152.384 82.0994C152.102 82.7784 151.699 83.2969 151.173 83.6548C150.648 84.0128 150.018 84.1918 149.286 84.1918ZM149.286 82.6619C149.786 82.6619 150.185 82.4105 150.483 81.9077C150.781 81.4048 150.929 80.6506 150.926 79.6449C150.926 78.983 150.858 78.4318 150.722 77.9915C150.588 77.5511 150.398 77.2202 150.151 76.9986C149.906 76.777 149.618 76.6662 149.286 76.6662C148.788 76.6662 148.391 76.9148 148.092 77.4119C147.794 77.9091 147.643 78.6534 147.641 79.6449C147.641 80.3153 147.707 80.875 147.841 81.3239C147.977 81.7699 148.169 82.1051 148.416 82.3295C148.663 82.5511 148.953 82.6619 149.286 82.6619ZM157.547 84.1918C156.814 84.1889 156.184 84.0085 155.655 83.6506C155.13 83.2926 154.725 82.7741 154.441 82.0952C154.159 81.4162 154.02 80.5994 154.023 79.6449C154.023 78.6932 154.164 77.8821 154.445 77.2116C154.729 76.5412 155.134 76.0312 155.659 75.6818C156.188 75.3295 156.817 75.1534 157.547 75.1534C158.277 75.1534 158.905 75.3295 159.431 75.6818C159.959 76.0341 160.365 76.5455 160.65 77.2159C160.934 77.8835 161.074 78.6932 161.071 79.6449C161.071 80.6023 160.929 81.4205 160.645 82.0994C160.364 82.7784 159.961 83.2969 159.435 83.6548C158.909 84.0128 158.28 84.1918 157.547 84.1918ZM157.547 82.6619C158.047 82.6619 158.446 82.4105 158.745 81.9077C159.043 81.4048 159.191 80.6506 159.188 79.6449C159.188 78.983 159.12 78.4318 158.983 77.9915C158.85 77.5511 158.659 77.2202 158.412 76.9986C158.168 76.777 157.88 76.6662 157.547 76.6662C157.05 76.6662 156.652 76.9148 156.354 77.4119C156.056 77.9091 155.905 78.6534 155.902 79.6449C155.902 80.3153 155.969 80.875 156.103 81.3239C156.239 81.7699 156.431 82.1051 156.678 82.3295C156.925 82.5511 157.215 82.6619 157.547 82.6619ZM165.809 84.1918C165.076 84.1889 164.445 84.0085 163.917 83.6506C163.391 83.2926 162.987 82.7741 162.702 82.0952C162.421 81.4162 162.282 80.5994 162.285 79.6449C162.285 78.6932 162.425 77.8821 162.707 77.2116C162.991 76.5412 163.396 76.0312 163.921 75.6818C164.45 75.3295 165.079 75.1534 165.809 75.1534C166.539 75.1534 167.167 75.3295 167.692 75.6818C168.221 76.0341 168.627 76.5455 168.911 77.2159C169.195 77.8835 169.336 78.6932 169.333 79.6449C169.333 80.6023 169.191 81.4205 168.907 82.0994C168.626 82.7784 168.222 83.2969 167.697 83.6548C167.171 84.0128 166.542 84.1918 165.809 84.1918ZM165.809 82.6619C166.309 82.6619 166.708 82.4105 167.006 81.9077C167.305 81.4048 167.452 80.6506 167.45 79.6449C167.45 78.983 167.381 78.4318 167.245 77.9915C167.112 77.5511 166.921 77.2202 166.674 76.9986C166.43 76.777 166.141 76.6662 165.809 76.6662C165.312 76.6662 164.914 76.9148 164.616 77.4119C164.317 77.9091 164.167 78.6534 164.164 79.6449C164.164 80.3153 164.231 80.875 164.364 81.3239C164.501 81.7699 164.692 82.1051 164.94 82.3295C165.187 82.5511 165.477 82.6619 165.809 82.6619Z" fill="#38A169"/>
<path d="M185.25 76.625V79.625C185.25 79.6992 185.228 79.7718 185.187 79.8335C185.146 79.8952 185.087 79.9433 185.019 79.9717C184.95 80.0001 184.875 80.0076 184.802 79.9931C184.729 79.9786 184.662 79.9428 184.61 79.8903L183.375 78.6552L180.64 81.3903C180.605 81.4252 180.564 81.4528 180.519 81.4717C180.473 81.4906 180.424 81.5003 180.375 81.5003C180.326 81.5003 180.277 81.4906 180.231 81.4717C180.186 81.4528 180.145 81.4252 180.11 81.3903L178.5 79.7802L175.39 82.8903C175.32 82.9607 175.225 83.0002 175.125 83.0002C175.025 83.0002 174.93 82.9607 174.86 82.8903C174.789 82.8199 174.75 82.7245 174.75 82.625C174.75 82.5255 174.789 82.4301 174.86 82.3597L178.235 78.9847C178.27 78.9498 178.311 78.9222 178.356 78.9033C178.402 78.8844 178.451 78.8747 178.5 78.8747C178.549 78.8747 178.598 78.8844 178.644 78.9033C178.689 78.9222 178.73 78.9498 178.765 78.9847L180.375 80.5948L182.845 78.125L181.61 76.8903C181.557 76.8379 181.521 76.771 181.507 76.6982C181.492 76.6255 181.5 76.55 181.528 76.4815C181.557 76.4129 181.605 76.3543 181.667 76.3131C181.728 76.2719 181.801 76.2499 181.875 76.25H184.875C184.974 76.25 185.07 76.2895 185.14 76.3598C185.21 76.4302 185.25 76.5255 185.25 76.625Z" fill="#38A169"/>
</g>
<defs>
<filter id="filter0_d_7355_231" x="0" y="0" width="259" height="158" filterUnits="userSpaceOnUse" color-interpolation-filters="sRGB">
<feFlood flood-opacity="0" result="BackgroundImageFix"/>
<feColorMatrix in="SourceAlpha" type="matrix" values="0 0 0 0 0 0 0 0 0 0 0 0 0 0 0 0 0 0 127 0" result="hardAlpha"/>
<feOffset dy="15"/>
<feGaussianBlur stdDeviation="19.5"/>
<feColorMatrix type="matrix" values="0 0 0 0 0.0117647 0 0 0 0 0 0 0 0 0 0.278431 0 0 0 0.15 0"/>
<feBlend mode="normal" in2="BackgroundImageFix" result="effect1_dropShadow_7355_231"/>
<feBlend mode="normal" in="SourceGraphic" in2="effect1_dropShadow_7355_231" result="shape"/>
</filter>
</defs>
</svg>
