<svg width="117" height="31" viewBox="0 0 117 31" fill="none" xmlns="http://www.w3.org/2000/svg">
<path fill-rule="evenodd" clip-rule="evenodd" d="M27.3549 5.79832C29.066 7.97907 28.2721 12.1529 27.487 14.1515C27.4943 14.1539 27.5014 14.1563 27.5087 14.1587L27.4926 14.1592L25.5877 14.0324C25.5877 14.0293 25.5875 14.0249 25.5877 14.0228C25.9586 9.71181 25.5317 7.98553 25.1156 7.69312C20.1333 11.2945 15.6831 10.1498 14.3075 9.79593C13.933 9.69961 13.7864 9.6619 13.9191 9.7946C14.3235 10.199 15.2436 10.6842 15.8996 11.0302H15.8997L15.9002 11.0304C16.0488 11.1088 16.1838 11.18 16.2962 11.2415C10.8877 11.3041 8.71339 8.69979 8.07413 7.93412C8.00895 7.85605 7.95971 7.79708 7.92466 7.76202C7.61269 7.45006 5.85761 6.38399 5.3064 8.41658C4.77248 10.3854 5.11061 12.6946 5.2891 13.9135C5.30458 14.0192 5.30641 14.0215 5.30641 14.0559L3.54942 14.1592L3.54484 14.1591C1.20906 8.75692 2.96477 5.72868 4.54847 4.59254C4.54847 1.93986 7.78684 -0.64395 11.8865 0.286191C17.1386 1.7833 18.7366 1.28722 20.6163 0.703653C21.3752 0.468062 22.18 0.218208 23.2897 0.0794927C28.3847 -0.557396 30.0995 2.78962 30.3177 4.52364C29.4633 4.02755 27.9865 5.14375 27.3549 5.79832ZM14.378 1.72544C13.0573 1.2661 9.65479 0.779674 7.86677 2.62116C7.47125 3.02851 7.00551 3.79248 7.00551 3.79248C7.00551 3.79248 6.21313 5.23937 5.59302 4.61927C4.97291 3.99918 6.41984 2.13885 7.55672 1.58764C8.69359 1.03642 11.5186 0.0718032 14.378 1.72544Z" fill="#754FFE"/>
<path d="M11.9218 14.6761H4.34265C3.39132 14.6761 2.62012 15.4473 2.62012 16.3987V19.9126C2.62012 20.864 3.39132 21.6352 4.34265 21.6352H11.9218C12.8731 21.6352 13.6443 20.864 13.6443 19.9126V16.3987C13.6443 15.4473 12.8731 14.6761 11.9218 14.6761Z" stroke="#754FFE" stroke-width="1.37803"/>
<path d="M1.86127 15.8817H1.37896C1.16967 15.8817 1 16.0514 1 16.2607V17.3631C1 17.5724 1.16967 17.742 1.37896 17.742H1.86127C2.07056 17.742 2.24022 17.5724 2.24022 17.3631V16.2607C2.24022 16.0514 2.07056 15.8817 1.86127 15.8817Z" fill="#754FFE" stroke="#754FFE" stroke-width="0.0689015"/>
<path d="M19.1561 14.6761H26.7352C27.6866 14.6761 28.4578 15.4473 28.4578 16.3987V19.9126C28.4578 20.864 27.6866 21.6352 26.7352 21.6352H19.1561C18.2047 21.6352 17.4335 20.864 17.4335 19.9126V16.3987C17.4335 15.4473 18.2047 14.6761 19.1561 14.6761Z" stroke="#754FFE" stroke-width="1.37803"/>
<path d="M29.2154 15.8817H29.6977C29.907 15.8817 30.0767 16.0513 30.0767 16.2606V17.3631C30.0767 17.5724 29.907 17.742 29.6977 17.742H29.2154C29.0061 17.742 28.8364 17.5724 28.8364 17.3631V16.2606C28.8364 16.0513 29.0061 15.8817 29.2154 15.8817Z" fill="#754FFE" stroke="#754FFE" stroke-width="0.0689015"/>
<path d="M14.3323 16.9152H16.7438C16.9531 16.9152 17.1228 17.0849 17.1228 17.2942V18.3966C17.1228 18.6059 16.9531 18.7755 16.7438 18.7755H14.3323C14.123 18.7755 13.9533 18.6059 13.9533 18.3966V17.2942C13.9533 17.0849 14.123 16.9152 14.3323 16.9152Z" fill="#754FFE" stroke="#754FFE" stroke-width="0.0689015"/>
<path d="M11.7646 17.8215C11.7646 18.164 11.5795 18.4416 11.3512 18.4416C11.1228 18.4416 10.9377 18.164 10.9377 17.8215C10.9377 17.479 11.1228 17.2013 11.3512 17.2013C11.5795 17.2013 11.7646 17.479 11.7646 17.8215Z" fill="#754FFE"/>
<path d="M19.4126 17.8215C19.4126 18.164 19.5976 18.4416 19.826 18.4416C20.0543 18.4416 20.2394 18.164 20.2394 17.8215C20.2394 17.479 20.0543 17.2013 19.826 17.2013C19.5976 17.2013 19.4126 17.479 19.4126 17.8215Z" fill="#754FFE"/>
<path d="M16.4851 21.8522C15.7961 22.4034 14.8659 22.1278 14.6248 21.8522C14.6936 22.1967 14.9554 22.6791 15.5893 22.6791C16.2232 22.6791 16.4506 22.1278 16.4851 21.8522Z" fill="#754FFE"/>
<path fill-rule="evenodd" clip-rule="evenodd" d="M14.1539 24.363C14.1825 24.233 14.3112 24.1507 14.4413 24.1794L16.8754 24.7152C17.0055 24.7439 17.0877 24.8725 17.059 25.0026C17.0304 25.1327 16.9018 25.2149 16.7717 25.1862L14.3376 24.6503C14.2075 24.6217 14.1253 24.4931 14.1539 24.363Z" fill="#754FFE"/>
<path d="M15.5552 30.0859C10.7596 30.141 7.24105 25.7222 6.08121 23.5058C5.90896 23.1766 5.77117 23.1268 5.66782 23.1958C5.50245 23.306 5.62187 23.5289 5.6678 23.6437C6.24657 24.9941 7.03434 26.1356 7.35588 26.5375C6.2259 28.4117 5.85154 30.2811 5.8056 30.9817C7.67972 29.1351 9.57222 29.2247 10.2842 29.5003C15.8652 32.3941 18.9658 30.3616 20.7228 29.5003C22.1284 28.8113 24.3172 30.1548 25.2359 30.9127C25.1256 29.204 24.2024 27.3299 23.7545 26.6064C24.4779 25.6417 25.0636 24.4705 25.3737 23.8848C25.6217 23.4162 25.5459 23.2302 25.477 23.1958C25.3116 23.1132 25.1095 23.3681 25.0292 23.5058C24.5124 24.3671 21.5496 30.0171 15.5552 30.0859Z" fill="#754FFE"/>
<path d="M50.1784 6.8608H54.5534C53.9966 2.83381 50.4469 0 45.8432 0C40.4639 0 36.3176 3.87784 36.3176 10.4801C36.3176 16.9233 40.1955 20.9205 45.9327 20.9205C51.0733 20.9205 54.7423 17.669 54.7423 12.3097V9.74429H46.221V12.9858H50.596C50.5364 15.5114 48.8162 17.1122 45.9526 17.1122C42.721 17.1122 40.6827 14.696 40.6827 10.4404C40.6827 6.20455 42.8006 3.80824 45.9128 3.80824C48.1301 3.80824 49.6315 4.95171 50.1784 6.8608Z" fill="#1E293B"/>
<path d="M63.7371 20.9404C67.5156 20.9404 70.061 19.1009 70.6576 16.2671L66.74 16.0085C66.3124 17.1719 65.2187 17.7784 63.8067 17.7784C61.6888 17.7784 60.3465 16.3764 60.3465 14.0994V14.0895H70.7471V12.9261C70.7471 7.7358 67.605 5.17047 63.5681 5.17047C59.0738 5.17047 56.1604 8.3622 56.1604 13.0753C56.1604 17.9176 59.034 20.9404 63.7371 20.9404ZM60.3465 11.4645C60.436 9.7244 61.7585 8.3324 63.6377 8.3324C65.4772 8.3324 66.7499 9.6449 66.7599 11.4645H60.3465Z" fill="#1E293B"/>
<path d="M79.3514 20.9404C83.1298 20.9404 85.6753 19.1009 86.2719 16.2671L82.3543 16.0085C81.9267 17.1719 80.833 17.7784 79.421 17.7784C77.3031 17.7784 75.9608 16.3764 75.9608 14.0994V14.0895H86.3614V12.9261C86.3614 7.7358 83.2193 5.17047 79.1824 5.17047C74.6881 5.17047 71.7747 8.3622 71.7747 13.0753C71.7747 17.9176 74.6483 20.9404 79.3514 20.9404ZM75.9608 11.4645C76.0503 9.7244 77.3727 8.3324 79.252 8.3324C81.0915 8.3324 82.3642 9.6449 82.3741 11.4645H75.9608Z" fill="#1E293B"/>
<path d="M88.0051 20.6421H92.2409V15.7898L93.3843 14.4872L97.5505 20.6421H102.512L96.5562 11.9815L102.224 5.36932H97.3616L92.4696 11.1662H92.2409V0.278412H88.0051V20.6421Z" fill="#1E293B"/>
<path d="M115.89 9.7244C115.512 6.91052 113.245 5.17047 109.387 5.17047C105.48 5.17047 102.904 6.98012 102.914 9.9233C102.904 12.2102 104.346 13.6918 107.328 14.2884L109.974 14.8154C111.306 15.0838 111.913 15.571 111.933 16.3367C111.913 17.2415 110.928 17.8878 109.447 17.8878C107.936 17.8878 106.931 17.2415 106.673 15.9986L102.506 16.2173C102.904 19.1406 105.39 20.9404 109.437 20.9404C113.394 20.9404 116.228 18.9219 116.238 15.9091C116.228 13.7017 114.786 12.3793 111.823 11.7727L109.059 11.2159C107.637 10.9077 107.109 10.4205 107.119 9.6847C107.109 8.7699 108.144 8.1733 109.457 8.1733C110.928 8.1733 111.803 8.9787 112.012 9.9631L115.89 9.7244Z" fill="#1E293B"/>
<path d="M74.962 29.9404V23.3949H76.6921V24.5498H76.7688C76.9052 24.1663 77.1324 23.8637 77.4506 23.6421C77.7688 23.4205 78.1495 23.3097 78.5927 23.3097C79.0415 23.3097 79.4236 23.4219 79.739 23.6464C80.0543 23.868 80.2645 24.1691 80.3697 24.5498H80.4378C80.5714 24.1748 80.8128 23.8751 81.1623 23.6506C81.5145 23.4234 81.9307 23.3097 82.4108 23.3097C83.0216 23.3097 83.5174 23.5043 83.8981 23.8935C84.2816 24.2799 84.4733 24.8282 84.4733 25.5384V29.9404H82.6623V25.8964C82.6623 25.5327 82.5657 25.26 82.3725 25.0782C82.1793 24.8964 81.9378 24.8055 81.6481 24.8055C81.3185 24.8055 81.0614 24.9106 80.8768 25.1208C80.6921 25.3282 80.5998 25.6023 80.5998 25.9432V29.9404H78.8398V25.858C78.8398 25.537 78.7475 25.2813 78.5628 25.091C78.381 24.9006 78.141 24.8055 77.8427 24.8055C77.641 24.8055 77.4591 24.8566 77.2972 24.9589C77.1381 25.0583 77.0117 25.1989 76.9179 25.3807C76.8242 25.5597 76.7773 25.7699 76.7773 26.0114V29.9404H74.962ZM88.6502 30.0682C87.977 30.0682 87.3974 29.9319 86.9116 29.6591C86.4287 29.3836 86.0565 28.9944 85.7951 28.4915C85.5338 27.9859 85.4031 27.3878 85.4031 26.6975C85.4031 26.0242 85.5338 25.4333 85.7951 24.9248C86.0565 24.4163 86.4244 24.0199 86.8988 23.7359C87.3761 23.4518 87.9358 23.3097 88.5778 23.3097C89.0096 23.3097 89.4116 23.3793 89.7838 23.5185C90.1588 23.6549 90.4855 23.8609 90.7639 24.1364C91.0451 24.412 91.2639 24.7586 91.4201 25.1762C91.5764 25.591 91.6545 26.0768 91.6545 26.6336V27.1322H86.1275V26.0072H89.9457C89.9457 25.7458 89.8889 25.5143 89.7752 25.3126C89.6616 25.1109 89.5039 24.9532 89.3022 24.8395C89.1034 24.7231 88.8718 24.6648 88.6076 24.6648C88.3321 24.6648 88.0877 24.7288 87.8747 24.8566C87.6645 24.9816 87.4997 25.1506 87.3804 25.3637C87.261 25.5739 87.2 25.8083 87.1971 26.0668V27.1364C87.1971 27.4603 87.2568 27.7401 87.3761 27.9759C87.4983 28.2117 87.6701 28.3935 87.8917 28.5214C88.1133 28.6492 88.3761 28.7131 88.6801 28.7131C88.8818 28.7131 89.0664 28.6847 89.2341 28.6279C89.4017 28.5711 89.5451 28.4859 89.6645 28.3722C89.7838 28.2586 89.8747 28.1194 89.9372 27.9546L91.6162 28.0654C91.5309 28.4688 91.3562 28.8211 91.092 29.1222C90.8306 29.4205 90.4926 29.6535 90.0778 29.8211C89.6659 29.9859 89.19 30.0682 88.6502 30.0682ZM94.4145 26.1563V29.9404H92.5992V23.3949H94.3293V24.5498H94.406C94.5509 24.1691 94.7938 23.868 95.1347 23.6464C95.4756 23.4219 95.8889 23.3097 96.3747 23.3097C96.8293 23.3097 97.2256 23.4091 97.5637 23.608C97.9017 23.8069 98.1645 24.091 98.352 24.4603C98.5395 24.8268 98.6333 25.2643 98.6333 25.7728V29.9404H96.8179V26.0966C96.8208 25.6961 96.7185 25.3836 96.5111 25.1591C96.3037 24.9319 96.0182 24.8182 95.6546 24.8182C95.4102 24.8182 95.1943 24.8708 95.0068 24.9759C94.8222 25.081 94.6773 25.2344 94.5722 25.4361C94.4699 25.635 94.4174 25.8751 94.4145 26.1563ZM103.306 23.3949V24.7586H99.3638V23.3949H103.306ZM100.259 21.8268H102.074V27.929C102.074 28.0966 102.1 28.2273 102.151 28.3211C102.202 28.412 102.273 28.4759 102.364 28.5128C102.458 28.5498 102.565 28.5682 102.688 28.5682C102.773 28.5682 102.858 28.5611 102.943 28.5469C103.029 28.5299 103.094 28.5171 103.139 28.5086L103.425 29.8594C103.334 29.8878 103.206 29.9205 103.041 29.9574C102.877 29.9972 102.676 30.0214 102.44 30.0299C102.003 30.0469 101.619 29.9887 101.29 29.8552C100.963 29.7216 100.709 29.5143 100.527 29.233C100.345 28.9518 100.256 28.5966 100.259 28.1677V21.8268ZM107.135 30.0682C106.473 30.0682 105.901 29.9276 105.418 29.6464C104.938 29.3623 104.567 28.9674 104.306 28.4617C104.044 27.9532 103.914 27.3637 103.914 26.6932C103.914 26.0171 104.044 25.4262 104.306 24.9205C104.567 24.412 104.938 24.0171 105.418 23.7359C105.901 23.4518 106.473 23.3097 107.135 23.3097C107.797 23.3097 108.368 23.4518 108.848 23.7359C109.331 24.0171 109.703 24.412 109.965 24.9205C110.226 25.4262 110.357 26.0171 110.357 26.6932C110.357 27.3637 110.226 27.9532 109.965 28.4617C109.703 28.9674 109.331 29.3623 108.848 29.6464C108.368 29.9276 107.797 30.0682 107.135 30.0682ZM107.144 28.662C107.445 28.662 107.696 28.5768 107.898 28.4063C108.1 28.233 108.252 27.9972 108.354 27.6989C108.459 27.4006 108.512 27.0611 108.512 26.6805C108.512 26.2998 108.459 25.9603 108.354 25.662C108.252 25.3637 108.1 25.1279 107.898 24.9546C107.696 24.7813 107.445 24.6947 107.144 24.6947C106.84 24.6947 106.584 24.7813 106.377 24.9546C106.172 25.1279 106.017 25.3637 105.912 25.662C105.81 25.9603 105.759 26.2998 105.759 26.6805C105.759 27.0611 105.81 27.4006 105.912 27.6989C106.017 27.9972 106.172 28.233 106.377 28.4063C106.584 28.5768 106.84 28.662 107.144 28.662ZM111.297 29.9404V23.3949H113.057V24.537H113.125C113.245 24.1307 113.445 23.8239 113.726 23.6165C114.007 23.4063 114.331 23.3012 114.698 23.3012C114.789 23.3012 114.887 23.3069 114.992 23.3182C115.097 23.3296 115.189 23.3452 115.269 23.3651V24.9759C115.184 24.9503 115.066 24.9276 114.915 24.9077C114.764 24.8878 114.627 24.8779 114.502 24.8779C114.235 24.8779 113.996 24.9361 113.786 25.0526C113.578 25.1663 113.414 25.3253 113.291 25.5299C113.172 25.7344 113.112 25.9702 113.112 26.2373V29.9404H111.297Z" fill="#754FFE"/>
</svg>
