<svg width="198" height="151" viewBox="0 0 198 151" fill="none" xmlns="http://www.w3.org/2000/svg">
<g filter="url(#filter0_d_7355_309)">
<rect x="12" y="26.6465" width="66.5965" height="59.7072" rx="4.59286" fill="white"/>
<rect x="21.1857" y="51.9072" width="6.88929" height="6.88929" rx="3.44465" fill="#E2E8F0"/>
<rect x="34.9643" y="51.9072" width="6.88929" height="6.88929" rx="3.44465" fill="#CBD5E1"/>
<rect x="48.7429" y="51.9072" width="6.88929" height="6.88929" rx="3.44465" fill="#CBD5E1"/>
<rect x="62.5215" y="51.9072" width="6.88929" height="6.88929" rx="3.44465" fill="#CBD5E1"/>
<rect x="21.1857" y="65.686" width="6.88929" height="6.88929" rx="3.44465" fill="#94A3B8"/>
<rect x="34.9643" y="65.686" width="6.88929" height="6.88929" rx="3.44465" fill="#38A169"/>
<rect x="37.5478" y="68.2695" width="1.72232" height="1.72232" rx="0.861161" fill="white"/>
<rect x="48.7429" y="65.686" width="6.88929" height="6.88929" rx="3.44465" fill="#94A3B8"/>
<rect x="62.5215" y="65.686" width="6.88929" height="6.88929" rx="3.44465" fill="#94A3B8"/>
<path d="M12 31.2393C12 28.7028 14.0563 26.6465 16.5929 26.6465H74.0036C76.5402 26.6465 78.5965 28.7028 78.5965 31.2393V43.8697H12V31.2393Z" fill="#754FFE"/>
<rect x="26.0435" y="22.1203" width="5.12281" height="10.2015" rx="2.5614" fill="white" stroke="#754FFE" stroke-width="1.2807"/>
<rect x="59.7172" y="22.1203" width="5.12281" height="10.2015" rx="2.5614" fill="white" stroke="#754FFE" stroke-width="1.2807"/>
</g>
<g filter="url(#filter1_dd_7355_309)">
<rect x="89.5965" y="20" width="69" height="19" rx="9.5" fill="white"/>
<path d="M99.0446 33H97.8512L100.533 25.5486H101.832L104.513 33H103.32L101.213 26.9021H101.155L99.0446 33ZM99.2447 30.082H103.116V31.028H99.2447V30.082ZM109.582 27.4115L107.556 33H106.391L104.361 27.4115H105.529L106.944 31.712H107.003L108.414 27.4115H109.582ZM112.071 33.1237C111.717 33.1237 111.396 33.0582 111.11 32.9272C110.824 32.7938 110.597 32.601 110.43 32.3487C110.265 32.0965 110.182 31.7872 110.182 31.421C110.182 31.1056 110.243 30.8461 110.364 30.6423C110.486 30.4386 110.649 30.2773 110.856 30.1584C111.062 30.0396 111.292 29.9498 111.547 29.8892C111.802 29.8286 112.061 29.7825 112.325 29.7509C112.66 29.7121 112.932 29.6806 113.14 29.6563C113.349 29.6297 113.501 29.5872 113.595 29.529C113.69 29.4708 113.737 29.3762 113.737 29.2452V29.2197C113.737 28.902 113.647 28.6558 113.468 28.4812C113.291 28.3065 113.026 28.2192 112.675 28.2192C112.308 28.2192 112.02 28.3005 111.809 28.463C111.6 28.6231 111.456 28.8013 111.376 28.9978L110.353 28.765C110.475 28.4254 110.652 28.1513 110.885 27.9427C111.12 27.7317 111.39 27.5788 111.696 27.4843C112.002 27.3872 112.323 27.3387 112.66 27.3387C112.883 27.3387 113.12 27.3654 113.37 27.4188C113.622 27.4697 113.857 27.5643 114.076 27.7026C114.296 27.8408 114.477 28.0385 114.618 28.2956C114.758 28.5503 114.829 28.8814 114.829 29.2889V33H113.766V32.2359H113.723C113.652 32.3766 113.547 32.5149 113.406 32.6507C113.265 32.7865 113.085 32.8993 112.864 32.9891C112.643 33.0788 112.379 33.1237 112.071 33.1237ZM112.307 32.2505C112.608 32.2505 112.865 32.1911 113.079 32.0722C113.294 31.9534 113.458 31.7981 113.57 31.6065C113.684 31.4125 113.741 31.2051 113.741 30.9844V30.264C113.702 30.3028 113.627 30.3391 113.515 30.3731C113.406 30.4046 113.281 30.4325 113.14 30.4568C113 30.4786 112.863 30.4992 112.729 30.5186C112.596 30.5356 112.484 30.5502 112.395 30.5623C112.184 30.589 111.991 30.6339 111.816 30.6969C111.644 30.76 111.506 30.8509 111.401 30.9698C111.299 31.0862 111.249 31.2415 111.249 31.4355C111.249 31.7047 111.348 31.9085 111.547 32.0468C111.746 32.1826 111.999 32.2505 112.307 32.2505ZM116.278 33V27.4115H117.366V33H116.278ZM116.827 26.5492C116.638 26.5492 116.475 26.4861 116.339 26.36C116.206 26.2314 116.139 26.0786 116.139 25.9016C116.139 25.7221 116.206 25.5693 116.339 25.4431C116.475 25.3146 116.638 25.2503 116.827 25.2503C117.016 25.2503 117.178 25.3146 117.311 25.4431C117.447 25.5693 117.515 25.7221 117.515 25.9016C117.515 26.0786 117.447 26.2314 117.311 26.36C117.178 26.4861 117.016 26.5492 116.827 26.5492ZM119.917 25.5486V33H118.829V25.5486H119.917ZM123.007 33.1237C122.653 33.1237 122.332 33.0582 122.046 32.9272C121.76 32.7938 121.533 32.601 121.366 32.3487C121.201 32.0965 121.118 31.7872 121.118 31.421C121.118 31.1056 121.179 30.8461 121.3 30.6423C121.422 30.4386 121.585 30.2773 121.792 30.1584C121.998 30.0396 122.228 29.9498 122.483 29.8892C122.738 29.8286 122.997 29.7825 123.261 29.7509C123.596 29.7121 123.868 29.6806 124.076 29.6563C124.285 29.6297 124.437 29.5872 124.531 29.529C124.626 29.4708 124.673 29.3762 124.673 29.2452V29.2197C124.673 28.902 124.583 28.6558 124.404 28.4812C124.227 28.3065 123.962 28.2192 123.611 28.2192C123.244 28.2192 122.956 28.3005 122.745 28.463C122.536 28.6231 122.392 28.8013 122.312 28.9978L121.289 28.765C121.411 28.4254 121.588 28.1513 121.821 27.9427C122.056 27.7317 122.326 27.5788 122.632 27.4843C122.938 27.3872 123.259 27.3387 123.596 27.3387C123.819 27.3387 124.056 27.3654 124.306 27.4188C124.558 27.4697 124.793 27.5643 125.012 27.7026C125.232 27.8408 125.413 28.0385 125.554 28.2956C125.694 28.5503 125.765 28.8814 125.765 29.2889V33H124.702V32.2359H124.659C124.588 32.3766 124.483 32.5149 124.342 32.6507C124.201 32.7865 124.021 32.8993 123.8 32.9891C123.579 33.0788 123.315 33.1237 123.007 33.1237ZM123.243 32.2505C123.544 32.2505 123.801 32.1911 124.015 32.0722C124.23 31.9534 124.394 31.7981 124.506 31.6065C124.62 31.4125 124.677 31.2051 124.677 30.9844V30.264C124.638 30.3028 124.563 30.3391 124.451 30.3731C124.342 30.4046 124.217 30.4325 124.076 30.4568C123.936 30.4786 123.799 30.4992 123.665 30.5186C123.532 30.5356 123.42 30.5502 123.331 30.5623C123.12 30.589 122.927 30.6339 122.752 30.6969C122.58 30.76 122.442 30.8509 122.337 30.9698C122.235 31.0862 122.185 31.2415 122.185 31.4355C122.185 31.7047 122.284 31.9085 122.483 32.0468C122.682 32.1826 122.935 32.2505 123.243 32.2505ZM127.301 33V25.5486H128.389V28.3174H128.454C128.517 28.201 128.608 28.0664 128.727 27.9136C128.846 27.7608 129.011 27.6274 129.222 27.5134C129.433 27.3969 129.712 27.3387 130.059 27.3387C130.51 27.3387 130.913 27.4527 131.267 27.6807C131.621 27.9087 131.899 28.2374 132.1 28.6667C132.304 29.096 132.406 29.6127 132.406 30.2167C132.406 30.8206 132.305 31.3385 132.104 31.7702C131.902 32.1996 131.626 32.5307 131.274 32.7635C130.922 32.9939 130.521 33.1092 130.07 33.1092C129.73 33.1092 129.452 33.0521 129.237 32.9381C129.023 32.8241 128.856 32.6907 128.734 32.5379C128.613 32.3851 128.52 32.2493 128.454 32.1304H128.363V33H127.301ZM128.367 30.2057C128.367 30.5987 128.424 30.9431 128.538 31.239C128.652 31.535 128.817 31.7666 129.033 31.934C129.249 32.0989 129.513 32.1814 129.826 32.1814C130.151 32.1814 130.423 32.0953 130.641 31.923C130.859 31.7484 131.024 31.5119 131.136 31.2136C131.25 30.9152 131.307 30.5793 131.307 30.2057C131.307 29.8371 131.251 29.506 131.139 29.2125C131.03 28.919 130.865 28.6873 130.645 28.5175C130.426 28.3478 130.153 28.2629 129.826 28.2629C129.511 28.2629 129.244 28.3441 129.026 28.5066C128.81 28.6691 128.646 28.8959 128.534 29.187C128.423 29.4781 128.367 29.8177 128.367 30.2057ZM133.627 33V27.4115H134.715V33H133.627ZM134.177 26.5492C133.987 26.5492 133.825 26.4861 133.689 26.36C133.556 26.2314 133.489 26.0786 133.489 25.9016C133.489 25.7221 133.556 25.5693 133.689 25.4431C133.825 25.3146 133.987 25.2503 134.177 25.2503C134.366 25.2503 134.527 25.3146 134.66 25.4431C134.796 25.5693 134.864 25.7221 134.864 25.9016C134.864 26.0786 134.796 26.2314 134.66 26.36C134.527 26.4861 134.366 26.5492 134.177 26.5492ZM137.266 25.5486V33H136.179V25.5486H137.266ZM138.73 33V27.4115H139.818V33H138.73ZM139.279 26.5492C139.09 26.5492 138.928 26.4861 138.792 26.36C138.658 26.2314 138.592 26.0786 138.592 25.9016C138.592 25.7221 138.658 25.5693 138.792 25.4431C138.928 25.3146 139.09 25.2503 139.279 25.2503C139.469 25.2503 139.63 25.3146 139.763 25.4431C139.899 25.5693 139.967 25.7221 139.967 25.9016C139.967 26.0786 139.899 26.2314 139.763 26.36C139.63 26.4861 139.469 26.5492 139.279 26.5492ZM143.89 27.4115V28.2847H140.837V27.4115H143.89ZM141.656 26.0726H142.744V31.3591C142.744 31.5701 142.775 31.729 142.839 31.8357C142.902 31.94 142.983 32.0116 143.082 32.0504C143.184 32.0868 143.295 32.105 143.413 32.105C143.501 32.105 143.577 32.0989 143.643 32.0868C143.708 32.0746 143.759 32.0649 143.795 32.0577L143.992 32.9563C143.929 32.9806 143.839 33.0049 143.723 33.0291C143.606 33.0558 143.461 33.0703 143.286 33.0728C143 33.0776 142.733 33.0267 142.486 32.92C142.238 32.8132 142.038 32.6483 141.885 32.4251C141.732 32.202 141.656 31.9218 141.656 31.5847V26.0726ZM145.781 35.0957C145.619 35.0957 145.471 35.0824 145.337 35.0557C145.204 35.0314 145.104 35.0047 145.039 34.9756L145.301 34.0842C145.5 34.1376 145.677 34.1606 145.832 34.1534C145.987 34.1461 146.124 34.0879 146.243 33.9787C146.364 33.8696 146.471 33.6913 146.563 33.4439L146.698 33.0728L144.653 27.4115H145.817L147.233 31.7484H147.291L148.706 27.4115H149.874L147.571 33.7459C147.464 34.0369 147.329 34.2831 147.164 34.4844C146.999 34.6882 146.802 34.841 146.574 34.9429C146.346 35.0448 146.082 35.0957 145.781 35.0957Z" fill="#38A169"/>
</g>
<g filter="url(#filter2_dd_7355_309)">
<rect x="89.5965" y="47" width="69" height="19" rx="9.5" fill="white"/>
<path d="M102.479 54.5061C102.44 54.1616 102.28 53.8948 101.999 53.7056C101.718 53.514 101.363 53.4182 100.937 53.4182C100.631 53.4182 100.366 53.4667 100.143 53.5637C99.9202 53.6583 99.7468 53.7893 99.6231 53.9567C99.5018 54.1216 99.4411 54.3096 99.4411 54.5206C99.4411 54.6977 99.4824 54.8505 99.5648 54.9791C99.6497 55.1076 99.7601 55.2156 99.8959 55.3029C100.034 55.3878 100.182 55.4593 100.34 55.5175C100.497 55.5733 100.649 55.6194 100.795 55.6558L101.522 55.845C101.76 55.9032 102.004 55.982 102.254 56.0815C102.503 56.1809 102.735 56.3119 102.949 56.4744C103.162 56.6369 103.334 56.8383 103.465 57.0784C103.599 57.3185 103.665 57.606 103.665 57.9407C103.665 58.3627 103.556 58.7375 103.338 59.0649C103.122 59.3924 102.808 59.6507 102.395 59.8399C101.986 60.0291 101.49 60.1237 100.907 60.1237C100.35 60.1237 99.8668 60.0352 99.4593 59.8581C99.0518 59.681 98.7329 59.43 98.5024 59.105C98.272 58.7775 98.1447 58.3894 98.1204 57.9407H99.2483C99.2701 58.2099 99.3575 58.4343 99.5103 58.6138C99.6655 58.7909 99.8632 58.923 100.103 59.0104C100.346 59.0953 100.611 59.1377 100.9 59.1377C101.218 59.1377 101.5 59.088 101.748 58.9885C101.998 58.8867 102.194 58.746 102.337 58.5665C102.48 58.3846 102.552 58.1723 102.552 57.9298C102.552 57.709 102.489 57.5283 102.363 57.3877C102.239 57.247 102.07 57.1305 101.857 57.0384C101.646 56.9462 101.407 56.8649 101.14 56.7946L100.26 56.5545C99.6631 56.392 99.1901 56.153 98.8408 55.8377C98.494 55.5224 98.3205 55.1052 98.3205 54.5861C98.3205 54.1568 98.437 53.782 98.6698 53.4619C98.9027 53.1417 99.218 52.8931 99.6158 52.716C100.014 52.5365 100.462 52.4468 100.962 52.4468C101.466 52.4468 101.912 52.5353 102.297 52.7124C102.685 52.8894 102.991 53.1332 103.214 53.4437C103.437 53.7517 103.554 54.1059 103.563 54.5061H102.479ZM107.275 60.1128C106.735 60.1128 106.269 59.9903 105.878 59.7453C105.49 59.4979 105.192 59.1571 104.983 58.7229C104.775 58.2888 104.67 57.7915 104.67 57.2312C104.67 56.6636 104.777 56.1627 104.991 55.7286C105.204 55.292 105.505 54.9512 105.893 54.7062C106.281 54.4612 106.738 54.3387 107.265 54.3387C107.689 54.3387 108.067 54.4175 108.4 54.5752C108.732 54.7304 109 54.9487 109.204 55.2301C109.41 55.5115 109.532 55.8401 109.571 56.2161H108.512C108.454 55.9541 108.321 55.7286 108.112 55.5394C107.906 55.3502 107.63 55.2556 107.283 55.2556C106.98 55.2556 106.714 55.3356 106.486 55.4957C106.26 55.6534 106.084 55.879 105.958 56.1724C105.832 56.4635 105.769 56.8079 105.769 57.2057C105.769 57.6132 105.831 57.9649 105.955 58.2609C106.078 58.5568 106.253 58.786 106.479 58.9485C106.707 59.111 106.975 59.1923 107.283 59.1923C107.489 59.1923 107.676 59.1547 107.843 59.0795C108.013 59.0019 108.155 58.8915 108.269 58.7484C108.385 58.6053 108.466 58.4331 108.512 58.2318H109.571C109.532 58.5932 109.415 58.9158 109.218 59.1996C109.022 59.4834 108.759 59.7065 108.429 59.869C108.101 60.0315 107.717 60.1128 107.275 60.1128ZM111.822 56.6818V60H110.735V52.5486H111.808V55.3211H111.877C112.008 55.0203 112.208 54.7814 112.477 54.6043C112.747 54.4272 113.098 54.3387 113.533 54.3387C113.916 54.3387 114.25 54.4175 114.537 54.5752C114.825 54.7329 115.048 54.9682 115.206 55.2811C115.366 55.5915 115.446 55.9796 115.446 56.4453V60H114.358V56.5763C114.358 56.1664 114.253 55.8486 114.042 55.6231C113.831 55.3951 113.537 55.2811 113.161 55.2811C112.904 55.2811 112.674 55.3356 112.47 55.4448C112.269 55.5539 112.11 55.714 111.993 55.925C111.879 56.1336 111.822 56.3859 111.822 56.6818ZM119.307 60.1128C118.756 60.1128 118.282 59.9951 117.884 59.7599C117.489 59.5222 117.183 59.1886 116.967 58.7593C116.754 58.3276 116.647 57.8218 116.647 57.2421C116.647 56.6697 116.754 56.1652 116.967 55.7286C117.183 55.292 117.484 54.9512 117.869 54.7062C118.258 54.4612 118.711 54.3387 119.23 54.3387C119.545 54.3387 119.851 54.3909 120.147 54.4952C120.443 54.5995 120.709 54.7632 120.944 54.9863C121.179 55.2095 121.365 55.4994 121.501 55.8559C121.636 56.21 121.704 56.6406 121.704 57.1475V57.5332H117.262V56.7182H120.638C120.638 56.432 120.58 56.1785 120.464 55.9578C120.347 55.7346 120.183 55.5588 119.972 55.4302C119.764 55.3017 119.519 55.2374 119.237 55.2374C118.932 55.2374 118.665 55.3126 118.437 55.463C118.211 55.6109 118.037 55.805 117.913 56.0451C117.792 56.2828 117.731 56.5411 117.731 56.8201V57.4568C117.731 57.8303 117.797 58.1481 117.928 58.41C118.061 58.672 118.247 58.8721 118.484 59.0104C118.722 59.1462 119 59.2141 119.317 59.2141C119.524 59.2141 119.712 59.185 119.881 59.1268C120.051 59.0662 120.198 58.9764 120.322 58.8576C120.445 58.7387 120.54 58.592 120.605 58.4173L121.635 58.6029C121.553 58.9061 121.405 59.1717 121.191 59.3997C120.98 59.6252 120.715 59.8011 120.394 59.9272C120.077 60.0509 119.714 60.1128 119.307 60.1128ZM125.003 60.1092C124.552 60.1092 124.15 59.9939 123.795 59.7635C123.444 59.5307 123.167 59.1996 122.966 58.7702C122.767 58.3385 122.668 57.8206 122.668 57.2167C122.668 56.6127 122.768 56.096 122.969 55.6667C123.173 55.2374 123.452 54.9087 123.806 54.6807C124.16 54.4527 124.562 54.3387 125.011 54.3387C125.357 54.3387 125.636 54.3969 125.847 54.5134C126.061 54.6274 126.226 54.7608 126.342 54.9136C126.461 55.0664 126.553 55.201 126.619 55.3174H126.684V52.5486H127.772V60H126.71V59.1304H126.619C126.553 59.2493 126.459 59.3851 126.335 59.5379C126.214 59.6907 126.046 59.8241 125.833 59.9381C125.619 60.0521 125.343 60.1092 125.003 60.1092ZM125.243 59.1814C125.556 59.1814 125.821 59.0989 126.037 58.934C126.255 58.7666 126.42 58.535 126.531 58.239C126.645 57.9431 126.702 57.5987 126.702 57.2057C126.702 56.8177 126.647 56.4781 126.535 56.187C126.424 55.8959 126.26 55.6691 126.044 55.5066C125.828 55.3441 125.561 55.2629 125.243 55.2629C124.916 55.2629 124.643 55.3478 124.425 55.5175C124.207 55.6873 124.042 55.919 123.93 56.2125C123.821 56.506 123.766 56.8371 123.766 57.2057C123.766 57.5793 123.822 57.9152 123.934 58.2136C124.045 58.5119 124.21 58.7484 124.428 58.923C124.649 59.0953 124.921 59.1814 125.243 59.1814ZM132.865 57.6824V54.4115H133.956V60H132.887V59.0322H132.829C132.7 59.3305 132.494 59.5792 132.21 59.7781C131.929 59.9745 131.578 60.0728 131.159 60.0728C130.8 60.0728 130.482 59.9939 130.205 59.8363C129.931 59.6762 129.715 59.4397 129.558 59.1268C129.402 58.8139 129.325 58.427 129.325 57.9662V54.4115H130.413V57.8352C130.413 58.216 130.518 58.5192 130.729 58.7448C130.94 58.9703 131.214 59.0831 131.551 59.0831C131.755 59.0831 131.958 59.0322 132.159 58.9303C132.363 58.8284 132.531 58.6744 132.665 58.4683C132.801 58.2621 132.867 58.0001 132.865 57.6824ZM136.506 52.5486V60H135.418V52.5486H136.506ZM140.378 60.1128C139.828 60.1128 139.353 59.9951 138.956 59.7599C138.56 59.5222 138.255 59.1886 138.039 58.7593C137.825 58.3276 137.718 57.8218 137.718 57.2421C137.718 56.6697 137.825 56.1652 138.039 55.7286C138.255 55.292 138.555 54.9512 138.941 54.7062C139.329 54.4612 139.783 54.3387 140.302 54.3387C140.617 54.3387 140.923 54.3909 141.219 54.4952C141.515 54.5995 141.78 54.7632 142.015 54.9863C142.251 55.2095 142.436 55.4994 142.572 55.8559C142.708 56.21 142.776 56.6406 142.776 57.1475V57.5332H138.333V56.7182H141.71C141.71 56.432 141.652 56.1785 141.535 55.9578C141.419 55.7346 141.255 55.5588 141.044 55.4302C140.835 55.3017 140.59 55.2374 140.309 55.2374C140.003 55.2374 139.737 55.3126 139.509 55.463C139.283 55.6109 139.108 55.805 138.985 56.0451C138.863 56.2828 138.803 56.5411 138.803 56.8201V57.4568C138.803 57.8303 138.868 58.1481 138.999 58.41C139.133 58.672 139.318 58.8721 139.556 59.0104C139.794 59.1462 140.071 59.2141 140.389 59.2141C140.595 59.2141 140.783 59.185 140.953 59.1268C141.123 59.0662 141.27 58.9764 141.393 58.8576C141.517 58.7387 141.612 58.592 141.677 58.4173L142.707 58.6029C142.624 58.9061 142.476 59.1717 142.263 59.3997C142.052 59.6252 141.786 59.8011 141.466 59.9272C141.148 60.0509 140.786 60.1128 140.378 60.1128ZM146.075 60.1092C145.624 60.1092 145.221 59.9939 144.867 59.7635C144.515 59.5307 144.239 59.1996 144.037 58.7702C143.839 58.3385 143.739 57.8206 143.739 57.2167C143.739 56.6127 143.84 56.096 144.041 55.6667C144.245 55.2374 144.524 54.9087 144.878 54.6807C145.232 54.4527 145.633 54.3387 146.082 54.3387C146.429 54.3387 146.708 54.3969 146.919 54.5134C147.132 54.6274 147.297 54.7608 147.414 54.9136C147.533 55.0664 147.625 55.201 147.69 55.3174H147.756V52.5486H148.844V60H147.781V59.1304H147.69C147.625 59.2493 147.53 59.3851 147.407 59.5379C147.285 59.6907 147.118 59.8241 146.904 59.9381C146.691 60.0521 146.414 60.1092 146.075 60.1092ZM146.315 59.1814C146.628 59.1814 146.892 59.0989 147.108 58.934C147.326 58.7666 147.491 58.535 147.603 58.239C147.717 57.9431 147.774 57.5987 147.774 57.2057C147.774 56.8177 147.718 56.4781 147.607 56.187C147.495 55.8959 147.331 55.6691 147.115 55.5066C146.9 55.3441 146.633 55.2629 146.315 55.2629C145.988 55.2629 145.715 55.3478 145.496 55.5175C145.278 55.6873 145.113 55.919 145.002 56.2125C144.892 56.506 144.838 56.8371 144.838 57.2057C144.838 57.5793 144.894 57.9152 145.005 58.2136C145.117 58.5119 145.282 58.7484 145.5 58.923C145.721 59.0953 145.992 59.1814 146.315 59.1814Z" fill="#754FFE"/>
</g>
<g filter="url(#filter3_dd_7355_309)">
<rect x="89.5965" y="74" width="41" height="19" rx="9.5" fill="white"/>
<path d="M98.4151 87V79.5486H101.144C101.673 79.5486 102.11 79.636 102.457 79.8106C102.804 79.9828 103.064 80.2169 103.236 80.5128C103.408 80.8063 103.494 81.1374 103.494 81.5061C103.494 81.8166 103.437 82.0785 103.323 82.292C103.209 82.503 103.056 82.6728 102.865 82.8013C102.676 82.9275 102.467 83.0196 102.239 83.0779V83.1506C102.486 83.1627 102.728 83.2428 102.963 83.3907C103.201 83.5363 103.397 83.7437 103.552 84.0129C103.708 84.2821 103.785 84.6096 103.785 84.9953C103.785 85.3761 103.696 85.7181 103.516 86.0213C103.339 86.3221 103.065 86.561 102.694 86.738C102.323 86.9127 101.849 87 101.271 87H98.4151ZM99.5394 86.0358H101.162C101.701 86.0358 102.086 85.9315 102.319 85.7229C102.552 85.5143 102.668 85.2536 102.668 84.9407C102.668 84.7054 102.609 84.4895 102.49 84.2931C102.371 84.0966 102.201 83.9401 101.981 83.8237C101.762 83.7073 101.503 83.6491 101.202 83.6491H99.5394V86.0358ZM99.5394 82.7722H101.046C101.298 82.7722 101.525 82.7237 101.726 82.6267C101.93 82.5297 102.091 82.3938 102.21 82.2192C102.331 82.0421 102.392 81.8335 102.392 81.5934C102.392 81.2854 102.284 81.027 102.068 80.8184C101.852 80.6098 101.521 80.5055 101.075 80.5055H99.5394V82.7722ZM108.572 84.6824V81.4115H109.663V87H108.593V86.0322H108.535C108.407 86.3305 108.2 86.5792 107.917 86.7781C107.635 86.9745 107.285 87.0728 106.865 87.0728C106.506 87.0728 106.188 86.9939 105.912 86.8363C105.638 86.6762 105.422 86.4397 105.264 86.1268C105.109 85.8139 105.031 85.427 105.031 84.9662V81.4115H106.119V84.8352C106.119 85.216 106.225 85.5192 106.436 85.7448C106.647 85.9703 106.921 86.0831 107.258 86.0831C107.462 86.0831 107.664 86.0322 107.866 85.9303C108.07 85.8284 108.238 85.6744 108.371 85.4683C108.507 85.2621 108.574 85.0001 108.572 84.6824ZM115.313 82.7759L114.327 82.9505C114.285 82.8244 114.22 82.7043 114.13 82.5903C114.043 82.4763 113.924 82.3829 113.774 82.3102C113.623 82.2374 113.435 82.201 113.21 82.201C112.902 82.201 112.644 82.2701 112.438 82.4084C112.232 82.5442 112.129 82.7201 112.129 82.936C112.129 83.1227 112.198 83.2731 112.336 83.3871C112.475 83.5011 112.698 83.5945 113.006 83.6673L113.894 83.871C114.408 83.9899 114.791 84.173 115.043 84.4204C115.296 84.6678 115.422 84.9892 115.422 85.3846C115.422 85.7193 115.325 86.0176 115.131 86.2796C114.939 86.5391 114.671 86.7429 114.327 86.8908C113.985 87.0388 113.588 87.1128 113.137 87.1128C112.511 87.1128 112 86.9794 111.605 86.7126C111.21 86.4433 110.967 86.0613 110.877 85.5665L111.929 85.4064C111.994 85.6805 112.129 85.8879 112.333 86.0286C112.537 86.1668 112.802 86.2359 113.13 86.2359C113.486 86.2359 113.771 86.162 113.985 86.014C114.198 85.8636 114.305 85.6805 114.305 85.4646C114.305 85.29 114.239 85.1432 114.108 85.0244C113.98 84.9055 113.782 84.8158 113.515 84.7551L112.569 84.5477C112.048 84.4289 111.662 84.2397 111.412 83.9802C111.165 83.7206 111.041 83.392 111.041 82.9942C111.041 82.6643 111.133 82.3756 111.318 82.1282C111.502 81.8808 111.757 81.688 112.082 81.5497C112.407 81.4091 112.779 81.3387 113.199 81.3387C113.803 81.3387 114.278 81.4697 114.625 81.7317C114.972 81.9912 115.201 82.3393 115.313 82.7759ZM117.305 89.0957C117.143 89.0957 116.995 89.0824 116.862 89.0557C116.728 89.0314 116.629 89.0047 116.563 88.9756L116.825 88.0842C117.024 88.1376 117.201 88.1606 117.356 88.1534C117.512 88.1461 117.649 88.0879 117.768 87.9787C117.889 87.8696 117.996 87.6913 118.088 87.4439L118.222 87.0728L116.178 81.4115H117.342L118.757 85.7484H118.815L120.231 81.4115H121.399L119.096 87.7459C118.989 88.0369 118.853 88.2831 118.688 88.4844C118.523 88.6882 118.327 88.841 118.099 88.9429C117.871 89.0448 117.606 89.0957 117.305 89.0957Z" fill="#F59E0B"/>
</g>
<defs>
<filter id="filter0_d_7355_309" x="0.804901" y="14.5907" width="88.9867" height="87.2637" filterUnits="userSpaceOnUse" color-interpolation-filters="sRGB">
<feFlood flood-opacity="0" result="BackgroundImageFix"/>
<feColorMatrix in="SourceAlpha" type="matrix" values="0 0 0 0 0 0 0 0 0 0 0 0 0 0 0 0 0 0 127 0" result="hardAlpha"/>
<feOffset dy="4.30581"/>
<feGaussianBlur stdDeviation="5.59755"/>
<feColorMatrix type="matrix" values="0 0 0 0 0.0117647 0 0 0 0 0 0 0 0 0 0.278431 0 0 0 0.15 0"/>
<feBlend mode="normal" in2="BackgroundImageFix" result="effect1_dropShadow_7355_309"/>
<feBlend mode="normal" in="SourceGraphic" in2="effect1_dropShadow_7355_309" result="shape"/>
</filter>
<filter id="filter1_dd_7355_309" x="51.1754" y="0.789474" width="145.842" height="95.8421" filterUnits="userSpaceOnUse" color-interpolation-filters="sRGB">
<feFlood flood-opacity="0" result="BackgroundImageFix"/>
<feColorMatrix in="SourceAlpha" type="matrix" values="0 0 0 0 0 0 0 0 0 0 0 0 0 0 0 0 0 0 127 0" result="hardAlpha"/>
<feOffset dy="19.2105"/>
<feGaussianBlur stdDeviation="19.2105"/>
<feColorMatrix type="matrix" values="0 0 0 0 0.0117647 0 0 0 0 0 0 0 0 0 0.278431 0 0 0 0.12 0"/>
<feBlend mode="normal" in2="BackgroundImageFix" result="effect1_dropShadow_7355_309"/>
<feColorMatrix in="SourceAlpha" type="matrix" values="0 0 0 0 0 0 0 0 0 0 0 0 0 0 0 0 0 0 127 0" result="hardAlpha"/>
<feOffset dy="2.5614"/>
<feGaussianBlur stdDeviation="3.20175"/>
<feColorMatrix type="matrix" values="0 0 0 0 0.0823529 0 0 0 0 0.0823529 0 0 0 0 0.0823529 0 0 0 0.08 0"/>
<feBlend mode="normal" in2="effect1_dropShadow_7355_309" result="effect2_dropShadow_7355_309"/>
<feBlend mode="normal" in="SourceGraphic" in2="effect2_dropShadow_7355_309" result="shape"/>
</filter>
<filter id="filter2_dd_7355_309" x="51.1754" y="27.7895" width="145.842" height="95.8421" filterUnits="userSpaceOnUse" color-interpolation-filters="sRGB">
<feFlood flood-opacity="0" result="BackgroundImageFix"/>
<feColorMatrix in="SourceAlpha" type="matrix" values="0 0 0 0 0 0 0 0 0 0 0 0 0 0 0 0 0 0 127 0" result="hardAlpha"/>
<feOffset dy="19.2105"/>
<feGaussianBlur stdDeviation="19.2105"/>
<feColorMatrix type="matrix" values="0 0 0 0 0.0117647 0 0 0 0 0 0 0 0 0 0.278431 0 0 0 0.12 0"/>
<feBlend mode="normal" in2="BackgroundImageFix" result="effect1_dropShadow_7355_309"/>
<feColorMatrix in="SourceAlpha" type="matrix" values="0 0 0 0 0 0 0 0 0 0 0 0 0 0 0 0 0 0 127 0" result="hardAlpha"/>
<feOffset dy="2.5614"/>
<feGaussianBlur stdDeviation="3.20175"/>
<feColorMatrix type="matrix" values="0 0 0 0 0.0823529 0 0 0 0 0.0823529 0 0 0 0 0.0823529 0 0 0 0.08 0"/>
<feBlend mode="normal" in2="effect1_dropShadow_7355_309" result="effect2_dropShadow_7355_309"/>
<feBlend mode="normal" in="SourceGraphic" in2="effect2_dropShadow_7355_309" result="shape"/>
</filter>
<filter id="filter3_dd_7355_309" x="51.1754" y="54.7895" width="117.842" height="95.8421" filterUnits="userSpaceOnUse" color-interpolation-filters="sRGB">
<feFlood flood-opacity="0" result="BackgroundImageFix"/>
<feColorMatrix in="SourceAlpha" type="matrix" values="0 0 0 0 0 0 0 0 0 0 0 0 0 0 0 0 0 0 127 0" result="hardAlpha"/>
<feOffset dy="19.2105"/>
<feGaussianBlur stdDeviation="19.2105"/>
<feColorMatrix type="matrix" values="0 0 0 0 0.0117647 0 0 0 0 0 0 0 0 0 0.278431 0 0 0 0.12 0"/>
<feBlend mode="normal" in2="BackgroundImageFix" result="effect1_dropShadow_7355_309"/>
<feColorMatrix in="SourceAlpha" type="matrix" values="0 0 0 0 0 0 0 0 0 0 0 0 0 0 0 0 0 0 127 0" result="hardAlpha"/>
<feOffset dy="2.5614"/>
<feGaussianBlur stdDeviation="3.20175"/>
<feColorMatrix type="matrix" values="0 0 0 0 0.0823529 0 0 0 0 0.0823529 0 0 0 0 0.0823529 0 0 0 0.08 0"/>
<feBlend mode="normal" in2="effect1_dropShadow_7355_309" result="effect2_dropShadow_7355_309"/>
<feBlend mode="normal" in="SourceGraphic" in2="effect2_dropShadow_7355_309" result="shape"/>
</filter>
</defs>
</svg>
