<svg width="155" height="102" viewBox="0 0 155 102" fill="none" xmlns="http://www.w3.org/2000/svg">
<g filter="url(#filter0_d_7355_303)">
<rect x="39" y="24" width="77" height="24" rx="12" fill="white"/>
<g clip-path="url(#clip0_7355_303)">
<path d="M55.067 28.8702C54.7978 28.5947 54.4763 28.3759 54.1214 28.2264C53.7664 28.077 53.3851 28 53 28C52.6149 28 52.2336 28.077 51.8787 28.2264C51.5237 28.3759 51.2022 28.5947 50.933 28.8702L50.311 29.5082L49.421 29.4972C49.0358 29.4926 48.6535 29.5652 48.2967 29.7105C47.9399 29.8558 47.6157 30.071 47.3433 30.3435C47.0708 30.6159 46.8556 30.94 46.7103 31.2969C46.565 31.6537 46.4924 32.0359 46.497 32.4212L46.507 33.3112L45.871 33.9332C45.5955 34.2024 45.3767 34.5239 45.2272 34.8788C45.0778 35.2338 45.0008 35.6151 45.0008 36.0002C45.0008 36.3853 45.0778 36.7666 45.2272 37.1215C45.3767 37.4765 45.5955 37.798 45.871 38.0672L46.508 38.6892L46.497 39.5792C46.4924 39.9644 46.565 40.3467 46.7103 40.7035C46.8556 41.0603 47.0708 41.3845 47.3433 41.6569C47.6157 41.9294 47.9399 42.1446 48.2967 42.2899C48.6535 42.4352 49.0358 42.5078 49.421 42.5032L50.311 42.4932L50.933 43.1292C51.2022 43.4047 51.5237 43.6235 51.8787 43.773C52.2336 43.9224 52.6149 43.9994 53 43.9994C53.3851 43.9994 53.7664 43.9224 54.1214 43.773C54.4763 43.6235 54.7978 43.4047 55.067 43.1292L55.689 42.4922L56.579 42.5032C56.9643 42.5078 57.3465 42.4352 57.7033 42.2899C58.0602 42.1446 58.3843 41.9294 58.6567 41.6569C58.9292 41.3845 59.1444 41.0603 59.2897 40.7035C59.435 40.3467 59.5076 39.9644 59.503 39.5792L59.493 38.6892L60.129 38.0672C60.4045 37.798 60.6233 37.4765 60.7728 37.1215C60.9222 36.7666 60.9992 36.3853 60.9992 36.0002C60.9992 35.6151 60.9222 35.2338 60.7728 34.8788C60.6233 34.5239 60.4045 34.2024 60.129 33.9332L59.492 33.3112L59.503 32.4212C59.5076 32.0359 59.435 31.6537 59.2897 31.2969C59.1444 30.94 58.9292 30.6159 58.6567 30.3435C58.3843 30.071 58.0602 29.8558 57.7033 29.7105C57.3465 29.5652 56.9643 29.4926 56.579 29.4972L55.689 29.5072L55.067 28.8702ZM55.354 34.8542L52.354 37.8542C52.3076 37.9008 52.2524 37.9377 52.1916 37.9629C52.1309 37.9881 52.0658 38.0011 52 38.0011C51.9342 38.0011 51.8691 37.9881 51.8084 37.9629C51.7476 37.9377 51.6924 37.9008 51.646 37.8542L50.146 36.3542C50.0995 36.3077 50.0626 36.2525 50.0375 36.1918C50.0123 36.131 49.9994 36.0659 49.9994 36.0002C49.9994 35.9345 50.0123 35.8694 50.0375 35.8086C50.0626 35.7479 50.0995 35.6927 50.146 35.6462C50.1925 35.5997 50.2477 35.5628 50.3084 35.5377C50.3692 35.5125 50.4343 35.4996 50.5 35.4996C50.5657 35.4996 50.6308 35.5125 50.6916 35.5377C50.7523 35.5628 50.8075 35.5997 50.854 35.6462L52 36.7932L54.646 34.1462C54.7399 34.0523 54.8672 33.9996 55 33.9996C55.1328 33.9996 55.2601 34.0523 55.354 34.1462C55.4479 34.2401 55.5006 34.3674 55.5006 34.5002C55.5006 34.633 55.4479 34.7603 55.354 34.8542Z" fill="#38A169"/>
</g>
<path d="M66.7216 31.2727L69.1506 38.3807H69.2486L71.6776 31.2727H73.1009L69.9602 40H68.4389L65.2983 31.2727H66.7216ZM76.4237 40.1321C75.7788 40.1321 75.2234 39.9943 74.7575 39.7188C74.2944 39.4403 73.9364 39.0497 73.6836 38.5469C73.4336 38.0412 73.3086 37.4489 73.3086 36.7699C73.3086 36.0994 73.4336 35.5085 73.6836 34.9972C73.9364 34.4858 74.2887 34.0866 74.7404 33.7997C75.195 33.5128 75.7262 33.3693 76.3342 33.3693C76.7035 33.3693 77.0614 33.4304 77.408 33.5526C77.7546 33.6747 78.0657 33.8665 78.3413 34.1278C78.6168 34.3892 78.8342 34.7287 78.9933 35.1463C79.1523 35.5611 79.2319 36.0653 79.2319 36.6591V37.1108H74.0288V36.1562H77.9833C77.9833 35.821 77.9151 35.5241 77.7788 35.2656C77.6424 35.0043 77.4506 34.7983 77.2035 34.6477C76.9592 34.4972 76.6722 34.4219 76.3427 34.4219C75.9847 34.4219 75.6722 34.5099 75.4052 34.6861C75.141 34.8594 74.9364 35.0866 74.7915 35.3679C74.6495 35.6463 74.5785 35.9489 74.5785 36.2756V37.0213C74.5785 37.4588 74.6552 37.831 74.8086 38.1378C74.9648 38.4446 75.1822 38.679 75.4606 38.8409C75.739 39 76.0643 39.0795 76.4364 39.0795C76.6779 39.0795 76.8981 39.0455 77.0969 38.9773C77.2958 38.9062 77.4677 38.8011 77.6126 38.6619C77.7575 38.5227 77.8683 38.3509 77.945 38.1463L79.1509 38.3636C79.0543 38.7187 78.881 39.0298 78.631 39.2969C78.3839 39.5611 78.0728 39.767 77.6978 39.9148C77.3256 40.0597 76.9009 40.1321 76.4237 40.1321ZM80.6456 40V33.4545H81.8771V34.4943H81.9453C82.0646 34.142 82.2749 33.8651 82.576 33.6634C82.88 33.4588 83.2237 33.3565 83.6072 33.3565C83.6868 33.3565 83.7805 33.3594 83.8885 33.3651C83.9993 33.3707 84.0859 33.3778 84.1484 33.3864V34.6051C84.0973 34.5909 84.0064 34.5753 83.8757 34.5582C83.745 34.5384 83.6143 34.5284 83.4837 34.5284C83.1825 34.5284 82.9141 34.5923 82.6783 34.7202C82.4453 34.8452 82.2607 35.0199 82.1243 35.2443C81.9879 35.4659 81.9197 35.7187 81.9197 36.0028V40H80.6456ZM85.2511 40V33.4545H86.5252V40H85.2511ZM85.8945 32.4446C85.6729 32.4446 85.4826 32.3707 85.3235 32.223C85.1673 32.0724 85.0891 31.8935 85.0891 31.6861C85.0891 31.4759 85.1673 31.2969 85.3235 31.1491C85.4826 30.9986 85.6729 30.9233 85.8945 30.9233C86.1161 30.9233 86.305 30.9986 86.4613 31.1491C86.6204 31.2969 86.6999 31.4759 86.6999 31.6861C86.6999 31.8935 86.6204 32.0724 86.4613 32.223C86.305 32.3707 86.1161 32.4446 85.8945 32.4446ZM91.3544 33.4545V34.4773H87.6555V33.4545H91.3544ZM88.6697 40V32.696C88.6697 32.2869 88.7592 31.9474 88.9382 31.6776C89.1172 31.4048 89.3544 31.2017 89.6499 31.0682C89.9453 30.9318 90.2663 30.8636 90.6129 30.8636C90.8686 30.8636 91.0874 30.8849 91.2692 30.9276C91.451 30.9673 91.5859 31.0043 91.674 31.0384L91.3757 32.0696C91.3161 32.0526 91.2393 32.0327 91.1456 32.0099C91.0518 31.9844 90.9382 31.9716 90.8047 31.9716C90.495 31.9716 90.2734 32.0483 90.1399 32.2017C90.0092 32.3551 89.9439 32.5767 89.9439 32.8665V40H88.6697ZM92.669 40V33.4545H93.9432V40H92.669ZM93.3125 32.4446C93.0909 32.4446 92.9006 32.3707 92.7415 32.223C92.5852 32.0724 92.5071 31.8935 92.5071 31.6861C92.5071 31.4759 92.5852 31.2969 92.7415 31.1491C92.9006 30.9986 93.0909 30.9233 93.3125 30.9233C93.5341 30.9233 93.723 30.9986 93.8793 31.1491C94.0384 31.2969 94.1179 31.4759 94.1179 31.6861C94.1179 31.8935 94.0384 32.0724 93.8793 32.223C93.723 32.3707 93.5341 32.4446 93.3125 32.4446ZM98.4783 40.1321C97.8335 40.1321 97.2781 39.9943 96.8121 39.7188C96.3491 39.4403 95.9911 39.0497 95.7383 38.5469C95.4883 38.0412 95.3633 37.4489 95.3633 36.7699C95.3633 36.0994 95.4883 35.5085 95.7383 34.9972C95.9911 34.4858 96.3434 34.0866 96.7951 33.7997C97.2496 33.5128 97.7809 33.3693 98.3888 33.3693C98.7582 33.3693 99.1161 33.4304 99.4627 33.5526C99.8093 33.6747 100.12 33.8665 100.396 34.1278C100.672 34.3892 100.889 34.7287 101.048 35.1463C101.207 35.5611 101.287 36.0653 101.287 36.6591V37.1108H96.0835V36.1562H100.038C100.038 35.821 99.9698 35.5241 99.8335 35.2656C99.6971 35.0043 99.5053 34.7983 99.2582 34.6477C99.0138 34.4972 98.7269 34.4219 98.3974 34.4219C98.0394 34.4219 97.7269 34.5099 97.4599 34.6861C97.1957 34.8594 96.9911 35.0866 96.8462 35.3679C96.7042 35.6463 96.6332 35.9489 96.6332 36.2756V37.0213C96.6332 37.4588 96.7099 37.831 96.8633 38.1378C97.0195 38.4446 97.2369 38.679 97.5153 38.8409C97.7937 39 98.119 39.0795 98.4911 39.0795C98.7326 39.0795 98.9528 39.0455 99.1516 38.9773C99.3505 38.9062 99.5224 38.8011 99.6673 38.6619C99.8121 38.5227 99.9229 38.3509 99.9996 38.1463L101.206 38.3636C101.109 38.7187 100.936 39.0298 100.686 39.2969C100.439 39.5611 100.127 39.767 99.7525 39.9148C99.3803 40.0597 98.9556 40.1321 98.4783 40.1321ZM105.151 40.1278C104.622 40.1278 104.151 39.9929 103.736 39.723C103.324 39.4503 103 39.0625 102.764 38.5597C102.531 38.054 102.415 37.4474 102.415 36.7401C102.415 36.0327 102.533 35.4276 102.768 34.9247C103.007 34.4219 103.334 34.0369 103.749 33.7699C104.163 33.5028 104.634 33.3693 105.159 33.3693C105.565 33.3693 105.892 33.4375 106.139 33.5739C106.389 33.7074 106.582 33.8636 106.719 34.0426C106.858 34.2216 106.966 34.3793 107.043 34.5156H107.119V31.2727H108.393V40H107.149V38.9815H107.043C106.966 39.1207 106.855 39.2798 106.71 39.4588C106.568 39.6378 106.372 39.794 106.122 39.9276C105.872 40.0611 105.548 40.1278 105.151 40.1278ZM105.432 39.0412C105.798 39.0412 106.108 38.9446 106.361 38.7514C106.616 38.5554 106.81 38.2841 106.94 37.9375C107.074 37.5909 107.141 37.1875 107.141 36.7273C107.141 36.2727 107.075 35.875 106.945 35.5341C106.814 35.1932 106.622 34.9276 106.369 34.7372C106.116 34.5469 105.804 34.4517 105.432 34.4517C105.048 34.4517 104.729 34.5511 104.473 34.75C104.217 34.9489 104.024 35.2202 103.893 35.5639C103.766 35.9077 103.702 36.2955 103.702 36.7273C103.702 37.1648 103.767 37.5582 103.898 37.9077C104.028 38.2571 104.222 38.5341 104.477 38.7386C104.736 38.9403 105.054 39.0412 105.432 39.0412Z" fill="#38A169"/>
</g>
<defs>
<filter id="filter0_d_7355_303" x="0" y="0" width="155" height="102" filterUnits="userSpaceOnUse" color-interpolation-filters="sRGB">
<feFlood flood-opacity="0" result="BackgroundImageFix"/>
<feColorMatrix in="SourceAlpha" type="matrix" values="0 0 0 0 0 0 0 0 0 0 0 0 0 0 0 0 0 0 127 0" result="hardAlpha"/>
<feOffset dy="15"/>
<feGaussianBlur stdDeviation="19.5"/>
<feColorMatrix type="matrix" values="0 0 0 0 0.0117647 0 0 0 0 0 0 0 0 0 0.278431 0 0 0 0.15 0"/>
<feBlend mode="normal" in2="BackgroundImageFix" result="effect1_dropShadow_7355_303"/>
<feBlend mode="normal" in="SourceGraphic" in2="effect1_dropShadow_7355_303" result="shape"/>
</filter>
<clipPath id="clip0_7355_303">
<rect width="16" height="16" fill="white" transform="translate(45 28)"/>
</clipPath>
</defs>
</svg>
